<svg width="522" height="83" viewBox="0 0 522 83" fill="none" xmlns="http://www.w3.org/2000/svg">
<path d="M107.77 12.8501C104.81 12.8501 102.56 10.6001 102.56 7.64005C102.56 4.68005 104.81 2.43005 107.77 2.43005C110.73 2.43005 112.98 4.68005 112.98 7.64005C112.98 10.6001 110.73 12.8501 107.77 12.8501ZM107.77 3.26005C105.29 3.26005 103.4 5.15005 103.4 7.63005C103.4 10.1101 105.29 12.0101 107.77 12.0101C110.25 12.0101 112.15 10.1101 112.15 7.63005C112.15 5.15005 110.26 3.26005 107.77 3.26005ZM108.94 8.08005L110.11 10.3801H108.97L107.85 8.19005H106.75V10.3801H105.79V4.69005H108.29C109.3 4.69005 110.15 5.22005 110.15 6.41005C110.15 7.30005 109.67 7.87005 108.94 8.08005M108.26 5.62005H106.76V7.24005H108.26C108.78 7.24005 109.17 6.99005 109.17 6.43005C109.17 5.87005 108.78 5.62005 108.26 5.62005" fill="#002557"/>
<path d="M150.26 40.86C139.24 40.86 130.51 32.29 130.51 21.65C130.51 11.01 139.23 2.39 150.26 2.39C161.29 2.39 169.81 10.57 169.81 21.79C169.81 32.37 160.89 40.85 150.26 40.85V40.86ZM150.26 5.63C141.34 5.63 134.24 12.39 134.24 21.46C134.24 30.03 141.2 37.68 149.92 37.68C159.08 37.68 166.09 30.77 166.09 21.76C166.09 12.75 158.94 5.64 150.26 5.64V5.63Z" fill="#00837E"/>
<path d="M192.01 40.18V26.26C192.01 21.21 190.34 19.01 185.74 19.01C182.41 19.01 179.76 21.02 178.73 22.15V40.18H175.5V16.61H178.73V19.11C180.05 17.93 182.7 15.97 186.67 15.97C192.16 15.97 195.24 18.67 195.24 24.74V40.17H192.01V40.18Z" fill="#00837E"/>
<path d="M222.09 36.84C220.23 39.29 216.8 40.81 212.59 40.81C205.68 40.81 200.39 35.52 200.39 28.46C200.39 21.4 205.63 15.97 212.88 15.97C217.29 15.97 220.47 18.42 221.16 19.15L219.45 21.31C218.86 20.72 216.46 18.81 212.84 18.81C208.43 18.81 203.78 21.95 203.78 28.46C203.78 34.39 207.99 37.96 212.99 37.96C216.91 37.96 219.02 36.49 220.54 34.92L222.11 36.83L222.09 36.84Z" fill="#00837E"/>
<path d="M237.82 40.81C230.76 40.81 225.23 35.42 225.23 28.41C225.23 21.4 230.77 15.96 237.87 15.96C244.97 15.96 250.36 21.55 250.36 28.41C250.36 35.27 244.87 40.81 237.82 40.81V40.81ZM246.93 28.41C246.93 22.87 242.72 18.81 237.77 18.81C232.33 18.81 228.56 22.88 228.56 28.56C228.56 34.24 232.97 37.97 237.72 37.97C243.21 37.97 246.93 34.15 246.93 28.42V28.41Z" fill="#00837E"/>
<path d="M255.96 40.18V0H259.19V40.18H255.96Z" fill="#00837E"/>
<path d="M277.37 40.81C270.31 40.81 264.78 35.42 264.78 28.41C264.78 21.4 270.32 15.96 277.42 15.96C284.52 15.96 289.91 21.55 289.91 28.41C289.91 35.27 284.42 40.81 277.37 40.81ZM286.48 28.41C286.48 22.87 282.27 18.81 277.32 18.81C271.88 18.81 268.11 22.88 268.11 28.56C268.11 34.24 272.52 37.97 277.27 37.97C282.76 37.97 286.48 34.15 286.48 28.42V28.41Z" fill="#00837E"/>
<path d="M313.09 36.99C311.18 39.29 307.95 40.81 305.05 40.81C299.42 40.81 293.68 36.3 293.68 28.46C293.68 20.62 299.9 15.97 306.57 15.97C311.37 15.97 314.65 17.68 316.27 18.96V41.5C316.27 50.42 310.59 53.06 305.3 53.06C301.72 53.06 298.44 52.08 295.75 50.32L297.22 47.82C299.38 49.29 302.51 50.22 305.4 50.22C308.78 50.22 313.09 48.95 313.09 41.74V36.99V36.99ZM313.09 20.58C312.26 20.09 309.95 18.82 306.57 18.82C301.72 18.82 297.11 21.91 297.11 28.47C297.11 32.68 299.66 37.93 305.78 37.93C308.52 37.93 311.71 36.02 313.08 33.62V20.59L313.09 20.58Z" fill="#00837E"/>
<path d="M321.81 52.87L329.45 37.88L319.7 16.62H323.33L331.22 34.7L339.84 16.62H343.42L325.24 52.88H321.81V52.87Z" fill="#00837E"/>
<path d="M359.34 40.18V3.09H366.69C373.3 3.09 380.11 5.78 380.11 13.82C380.11 20.53 375.65 25.58 366.1 25.58H362.87V40.18H359.34V40.18ZM366.05 22.39C372.52 22.39 376.44 19.25 376.44 13.86C376.44 8.76 372.42 6.27 367.57 6.27H362.87V22.39H366.05Z" fill="#00837E"/>
<path d="M385.07 40.18V16.61H388.3V19.99C388.59 18.91 390.65 15.97 393.35 15.97C395.16 15.97 396.83 16.75 397.32 17.05L395.8 20.14C395.31 19.8 394.33 19.16 393.06 19.16C390.32 19.16 388.55 22.2 388.31 24.16V40.18H385.08H385.07Z" fill="#00837E"/>
<path d="M419.22 37.48C417.01 39.54 413.49 40.81 408.93 40.81C402.07 40.81 398.89 36.74 398.89 32.28C398.89 26.99 404.52 24.59 408.64 24.59C411.14 24.59 414.22 25.37 416.04 27.24V23.96C416.04 21.02 413.79 18.77 409.57 18.77C406.43 18.77 403.74 19.85 403 20.19L401.78 17.74C403.4 16.96 406.04 15.98 409.62 15.98C417.26 15.98 419.22 19.61 419.22 24.85V37.49V37.48ZM416.04 29.98C414.72 28.71 412.37 27.19 408.98 27.19C405.94 27.19 402.27 28.81 402.27 32.29C402.27 36.11 405.41 38.12 409.13 38.12C412.22 38.12 414.52 37.29 416.04 36.11V29.99V29.98Z" fill="#00837E"/>
<path d="M445.78 36.84C443.92 39.29 440.49 40.81 436.27 40.81C429.36 40.81 424.07 35.52 424.07 28.46C424.07 21.4 429.31 15.97 436.56 15.97C440.97 15.97 444.15 18.42 444.84 19.15L443.13 21.31C442.54 20.72 440.14 18.81 436.52 18.81C432.11 18.81 427.46 21.95 427.46 28.46C427.46 34.39 431.67 37.96 436.67 37.96C440.59 37.96 442.7 36.49 444.21 34.92L445.78 36.83V36.84Z" fill="#00837E"/>
<path d="M452.25 40.18V19.45H447.89V16.66H452.25V8.23H455.48V16.66H461.21V19.45H455.48V40.18H452.25Z" fill="#00837E"/>
<path d="M466.99 11.91C465.62 11.91 464.49 10.83 464.49 9.46C464.49 7.94 465.62 6.91 466.99 6.91C468.46 6.91 469.49 7.99 469.49 9.46C469.49 10.83 468.41 11.91 466.99 11.91ZM465.32 40.18V16.61H468.55V40.18H465.32Z" fill="#00837E"/>
<path d="M495.81 36.84C493.95 39.29 490.52 40.81 486.3 40.81C479.39 40.81 474.1 35.52 474.1 28.46C474.1 21.4 479.34 15.97 486.59 15.97C491 15.97 494.18 18.42 494.87 19.15L493.16 21.31C492.57 20.72 490.17 18.81 486.55 18.81C482.14 18.81 477.49 21.95 477.49 28.46C477.49 34.39 481.7 37.96 486.7 37.96C490.62 37.96 492.73 36.49 494.24 34.92L495.81 36.83V36.84Z" fill="#00837E"/>
<path d="M520.94 36.89C519.37 39.05 515.8 40.81 511.14 40.81C504.13 40.81 498.99 35.86 498.99 28.51C498.99 21.16 503.74 15.97 510.99 15.97C518.24 15.97 521.62 21.75 521.62 27.73V28.61H502.27C502.27 34.44 506.09 38.02 511.82 38.02C515.89 38.02 518.34 36.16 519.41 34.93L520.93 36.89H520.94ZM518.29 26.01C517.9 22.09 515.45 18.76 510.84 18.76C506.72 18.76 503.05 21.26 502.41 26.01H518.28H518.29Z" fill="#00837E"/>
<path d="M0 46.74C6.42 44.68 7.84 42.87 7.84 34.98V2.99002H14.85V35.18C14.85 45.67 12.01 48.95 2.45 52.67L0 46.74H0Z" fill="#002557"/>
<path d="M54.62 35.96C51.24 39.24 46.88 40.91 41.19 40.91C29.33 40.91 20.56 32.04 20.56 21.56C20.56 11.08 28.7 2.15002 40.56 2.15002C48.69 2.15002 53.45 6.27002 54.33 7.49002L50.66 12.29C48.01 9.79002 44.63 8.42002 40.22 8.42002C33.02 8.42002 28.02 14.05 28.02 21.75C28.02 28.95 34 34.64 41.25 34.64C46.93 34.64 50.22 32.53 51.44 31.41L54.63 35.97L54.62 35.96Z" fill="#002557"/>
<path d="M76.28 40.91C64.96 40.91 55.9 32.14 55.9 21.56C55.9 10.98 64.96 2.15002 76.28 2.15002C87.6 2.15002 96.52 10.53 96.52 21.7C96.52 32.23 87.21 40.91 76.28 40.91ZM76.28 8.43002C69.18 8.43002 63.3 14.11 63.3 21.37C63.3 28.63 69.03 34.7 75.94 34.7C83.29 34.7 89.07 28.92 89.07 21.67C89.07 14.42 83.19 8.44002 76.28 8.44002V8.43002Z" fill="#002557"/>
<path d="M34.96 76L27.94 60.4L20.86 76H22.42L24.22 71.96H31.62L33.4 76H34.96ZM31.04 70.66H24.8L27.56 64.42C27.68 64.16 27.86 63.68 27.92 63.5C27.96 63.68 28.16 64.18 28.28 64.42L31.04 70.66ZM44.4077 76V69.7C44.4077 67.22 43.1477 66.12 40.9077 66.12C39.2877 66.12 38.2077 66.92 37.6677 67.4V66.38H36.3477V76H37.6677V68.64C38.0877 68.18 39.1677 67.36 40.5277 67.36C42.4077 67.36 43.0877 68.26 43.0877 70.32V76H44.4077ZM64.5889 76L57.5689 60.4L50.4889 76H52.0489L53.8489 71.96H61.2489L63.0289 76H64.5889ZM60.6689 70.66H54.4289L57.1889 64.42C57.3089 64.16 57.4889 63.68 57.5489 63.5C57.5889 63.68 57.7889 64.18 57.9089 64.42L60.6689 70.66ZM79.7366 76V69.6C79.7366 67.2 78.5366 66.12 76.6766 66.12C75.1566 66.12 73.8366 66.98 73.1166 67.6C72.6766 66.84 71.8966 66.12 70.4966 66.12C68.9766 66.12 67.8166 66.94 67.2966 67.4V66.38H65.9766V76H67.2966V68.62C67.7166 68.16 68.7966 67.36 69.9966 67.36C71.3966 67.36 72.1966 67.96 72.1966 69.7V76H73.5166V69.54C73.5166 69.24 73.4966 68.96 73.4566 68.66C73.9166 68.18 75.0166 67.36 76.2566 67.36C77.6366 67.36 78.4166 68 78.4166 69.72V76H79.7366ZM90.3763 73.86C89.9363 74.36 88.9363 75.12 87.2763 75.12C84.9363 75.12 83.3763 73.66 83.3763 71.28H91.2763V70.92C91.2763 68.48 89.9163 66.12 86.9363 66.12C83.9763 66.12 82.0363 68.24 82.0363 71.24C82.0363 74.24 84.1363 76.26 86.9963 76.26C88.8963 76.26 90.3563 75.54 90.9963 74.66L90.3763 73.86ZM83.4363 70.22C83.6963 68.28 85.1963 67.26 86.8763 67.26C88.7563 67.26 89.7563 68.62 89.9163 70.22H83.4363ZM94.9333 76V69.46C95.0333 68.66 95.7533 67.42 96.8733 67.42C97.3933 67.42 97.7933 67.68 97.9933 67.82L98.6133 66.56C98.4133 66.44 97.7333 66.12 96.9933 66.12C95.8933 66.12 95.0533 67.32 94.9333 67.76V66.38H93.6133V76H94.9333ZM101.713 76V66.38H100.393V76H101.713ZM102.093 63.46C102.093 62.86 101.673 62.42 101.073 62.42C100.513 62.42 100.053 62.84 100.053 63.46C100.053 64.02 100.513 64.46 101.073 64.46C101.653 64.46 102.093 64.02 102.093 63.46ZM112.385 73.86C111.765 74.5 110.905 75.1 109.305 75.1C107.265 75.1 105.545 73.64 105.545 71.22C105.545 68.56 107.445 67.28 109.245 67.28C110.725 67.28 111.705 68.06 111.945 68.3L112.645 67.42C112.365 67.12 111.065 66.12 109.265 66.12C106.305 66.12 104.165 68.28 104.165 71.22C104.165 74.1 106.325 76.26 109.145 76.26C110.865 76.26 112.265 75.64 113.025 74.64L112.385 73.86ZM121.277 74.34C120.657 74.82 119.717 75.16 118.457 75.16C116.937 75.16 115.657 74.34 115.657 72.78C115.657 71.36 117.157 70.7 118.397 70.7C119.777 70.7 120.737 71.32 121.277 71.84V74.34ZM122.577 69.74C122.577 67.6 121.777 66.12 118.657 66.12C117.197 66.12 116.117 66.52 115.457 66.84L115.957 67.84C116.257 67.7 117.357 67.26 118.637 67.26C120.357 67.26 121.277 68.18 121.277 69.38V70.72C120.537 69.96 119.277 69.64 118.257 69.64C116.577 69.64 114.277 70.62 114.277 72.78C114.277 74.6 115.577 76.26 118.377 76.26C120.237 76.26 121.677 75.74 122.577 74.9V69.74ZM133.431 76V69.7C133.431 67.22 132.171 66.12 129.931 66.12C128.311 66.12 127.231 66.92 126.691 67.4V66.38H125.371V76H126.691V68.64C127.111 68.18 128.191 67.36 129.551 67.36C131.431 67.36 132.111 68.26 132.111 70.32V76H133.431ZM140.272 74.28C140.892 75.14 142.772 76.28 144.872 76.28C147.932 76.28 149.672 74.22 149.672 72.16C149.672 66.78 142.632 67.86 142.632 64.24C142.632 62.62 144.032 61.84 145.472 61.84C146.812 61.84 147.732 62.44 148.372 63.08L149.172 62.06C148.712 61.56 147.372 60.54 145.452 60.54C143.232 60.54 141.132 61.88 141.132 64.38C141.132 68.88 148.132 67.88 148.132 72.18C148.132 73.88 146.792 74.96 144.992 74.96C142.932 74.96 141.712 73.94 141.112 73.24L140.272 74.28ZM161.71 71.2C161.71 68.4 159.49 66.12 156.61 66.12C153.71 66.12 151.45 68.34 151.45 71.2C151.45 74.06 153.71 76.26 156.59 76.26C159.47 76.26 161.71 74.02 161.71 71.2ZM156.55 75.1C154.61 75.1 152.81 73.5 152.81 71.26C152.81 68.94 154.35 67.28 156.57 67.28C158.59 67.28 160.31 68.94 160.31 71.2C160.31 73.54 158.79 75.1 156.55 75.1ZM171.663 73.86C171.043 74.5 170.183 75.1 168.583 75.1C166.543 75.1 164.823 73.64 164.823 71.22C164.823 68.56 166.723 67.28 168.523 67.28C170.003 67.28 170.983 68.06 171.223 68.3L171.923 67.42C171.643 67.12 170.343 66.12 168.543 66.12C165.583 66.12 163.443 68.28 163.443 71.22C163.443 74.1 165.603 76.26 168.423 76.26C170.143 76.26 171.543 75.64 172.303 74.64L171.663 73.86ZM175.814 76V66.38H174.494V76H175.814ZM176.194 63.46C176.194 62.86 175.774 62.42 175.174 62.42C174.614 62.42 174.154 62.84 174.154 63.46C174.154 64.02 174.614 64.46 175.174 64.46C175.754 64.46 176.194 64.02 176.194 63.46ZM186.607 73.86C186.167 74.36 185.167 75.12 183.507 75.12C181.167 75.12 179.607 73.66 179.607 71.28H187.507V70.92C187.507 68.48 186.147 66.12 183.167 66.12C180.207 66.12 178.267 68.24 178.267 71.24C178.267 74.24 180.367 76.26 183.227 76.26C185.127 76.26 186.587 75.54 187.227 74.66L186.607 73.86ZM179.667 70.22C179.927 68.28 181.427 67.26 183.107 67.26C184.987 67.26 185.987 68.62 186.147 70.22H179.667ZM191.884 76V67.54H194.224V66.4H191.884V62.96H190.564V66.4H188.784V67.54H190.564V76H191.884ZM196.916 81.18L204.336 66.38H202.876L199.356 73.76L196.136 66.38H194.656L198.636 75.06L195.516 81.18H196.916ZM220.362 71.2C220.362 68.4 218.142 66.12 215.262 66.12C212.362 66.12 210.102 68.34 210.102 71.2C210.102 74.06 212.362 76.26 215.242 76.26C218.122 76.26 220.362 74.02 220.362 71.2ZM215.202 75.1C213.262 75.1 211.462 73.5 211.462 71.26C211.462 68.94 213.002 67.28 215.222 67.28C217.242 67.28 218.962 68.94 218.962 71.2C218.962 73.54 217.442 75.1 215.202 75.1ZM224.655 76V67.54H227.055V66.4H224.655V63.42C224.655 61.94 225.115 60.86 226.475 60.86C227.035 60.86 227.615 61.18 227.775 61.28L228.335 60.16C228.175 60.04 227.435 59.64 226.475 59.64C225.655 59.64 224.735 59.84 224.095 60.68C223.515 61.46 223.335 62.4 223.335 63.72V66.4H221.715V67.54H223.335V76H224.655ZM245.71 73.42C244.79 74.3 243.25 74.98 241.31 74.98C237.75 74.98 234.79 72.18 234.79 68.54C234.79 64.62 237.51 61.9 241.07 61.9C243.25 61.9 244.65 62.66 245.55 63.58L246.35 62.54C245.25 61.5 243.47 60.58 241.23 60.58C236.61 60.58 233.27 64.12 233.27 68.44C233.27 72.74 236.67 76.28 241.29 76.28C243.29 76.28 245.01 75.62 246.39 74.38L245.71 73.42ZM250.17 76V59.6H248.85V76H250.17ZM254.681 76V66.38H253.361V76H254.681ZM255.061 63.46C255.061 62.86 254.641 62.42 254.041 62.42C253.481 62.42 253.021 62.84 253.021 63.46C253.021 64.02 253.481 64.46 254.041 64.46C254.621 64.46 255.061 64.02 255.061 63.46ZM265.814 76V69.7C265.814 67.22 264.554 66.12 262.314 66.12C260.694 66.12 259.614 66.92 259.074 67.4V66.38H257.754V76H259.074V68.64C259.494 68.18 260.574 67.36 261.934 67.36C263.814 67.36 264.494 68.26 264.494 70.32V76H265.814ZM270.13 76V66.38H268.81V76H270.13ZM270.51 63.46C270.51 62.86 270.09 62.42 269.49 62.42C268.93 62.42 268.47 62.84 268.47 63.46C268.47 64.02 268.93 64.46 269.49 64.46C270.07 64.46 270.51 64.02 270.51 63.46ZM280.803 73.86C280.183 74.5 279.323 75.1 277.723 75.1C275.683 75.1 273.963 73.64 273.963 71.22C273.963 68.56 275.863 67.28 277.663 67.28C279.143 67.28 280.123 68.06 280.363 68.3L281.063 67.42C280.783 67.12 279.483 66.12 277.683 66.12C274.723 66.12 272.583 68.28 272.583 71.22C272.583 74.1 274.743 76.26 277.563 76.26C279.283 76.26 280.683 75.64 281.443 74.64L280.803 73.86ZM289.695 74.34C289.075 74.82 288.135 75.16 286.875 75.16C285.355 75.16 284.075 74.34 284.075 72.78C284.075 71.36 285.575 70.7 286.815 70.7C288.195 70.7 289.155 71.32 289.695 71.84V74.34ZM290.995 69.74C290.995 67.6 290.195 66.12 287.075 66.12C285.615 66.12 284.535 66.52 283.875 66.84L284.375 67.84C284.675 67.7 285.775 67.26 287.055 67.26C288.775 67.26 289.695 68.18 289.695 69.38V70.72C288.955 69.96 287.695 69.64 286.675 69.64C284.995 69.64 282.695 70.62 282.695 72.78C282.695 74.6 283.995 76.26 286.795 76.26C288.655 76.26 290.095 75.74 290.995 74.9V69.74ZM295.229 76V59.6H293.909V76H295.229ZM318.705 68.5C318.705 63.92 315.185 60.58 310.725 60.58C306.225 60.58 302.665 64.08 302.665 68.44C302.665 72.78 306.225 76.28 310.725 76.28C315.065 76.28 318.705 72.82 318.705 68.5ZM317.185 68.48C317.185 72.16 314.325 74.98 310.585 74.98C307.025 74.98 304.185 71.86 304.185 68.36C304.185 64.66 307.085 61.9 310.725 61.9C314.265 61.9 317.185 64.66 317.185 68.48ZM329.29 76V69.7C329.29 67.22 328.03 66.12 325.79 66.12C324.17 66.12 323.09 66.92 322.55 67.4V66.38H321.23V76H322.55V68.64C322.97 68.18 324.05 67.36 325.41 67.36C327.29 67.36 327.97 68.26 327.97 70.32V76H329.29ZM339.807 73.86C339.187 74.5 338.327 75.1 336.727 75.1C334.687 75.1 332.967 73.64 332.967 71.22C332.967 68.56 334.867 67.28 336.667 67.28C338.147 67.28 339.127 68.06 339.367 68.3L340.067 67.42C339.787 67.12 338.487 66.12 336.687 66.12C333.727 66.12 331.587 68.28 331.587 71.22C331.587 74.1 333.747 76.26 336.567 76.26C338.287 76.26 339.687 75.64 340.447 74.64L339.807 73.86ZM352.179 71.2C352.179 68.4 349.959 66.12 347.079 66.12C344.179 66.12 341.919 68.34 341.919 71.2C341.919 74.06 344.179 76.26 347.059 76.26C349.939 76.26 352.179 74.02 352.179 71.2ZM347.019 75.1C345.079 75.1 343.279 73.5 343.279 71.26C343.279 68.94 344.819 67.28 347.039 67.28C349.059 67.28 350.779 68.94 350.779 71.2C350.779 73.54 349.259 75.1 347.019 75.1ZM355.971 76V59.6H354.651V76H355.971ZM368.702 71.2C368.702 68.4 366.482 66.12 363.602 66.12C360.702 66.12 358.442 68.34 358.442 71.2C358.442 74.06 360.702 76.26 363.582 76.26C366.462 76.26 368.702 74.02 368.702 71.2ZM363.542 75.1C361.602 75.1 359.802 73.5 359.802 71.26C359.802 68.94 361.342 67.28 363.562 67.28C365.582 67.28 367.302 68.94 367.302 71.2C367.302 73.54 365.782 75.1 363.542 75.1ZM378.355 76.64C378.355 79.58 376.595 80.1 375.215 80.1C374.035 80.1 372.755 79.72 371.875 79.12L371.275 80.14C372.375 80.86 373.715 81.26 375.175 81.26C377.335 81.26 379.655 80.18 379.655 76.54V67.34C378.995 66.82 377.655 66.12 375.695 66.12C372.975 66.12 370.435 67.88 370.435 71.22C370.435 74.42 372.775 76.26 375.075 76.26C376.255 76.26 377.575 75.64 378.355 74.7V76.64ZM378.355 73.32C377.795 74.3 376.495 75.08 375.375 75.08C372.875 75.08 371.835 72.94 371.835 71.22C371.835 68.54 373.715 67.28 375.695 67.28C377.075 67.28 378.015 67.8 378.355 68V73.32ZM383.517 81.18L390.937 66.38H389.477L385.957 73.76L382.737 66.38H381.257L385.237 75.06L382.117 81.18H383.517ZM395.324 81.26C398.344 79.98 399.284 78.84 399.284 74.56V60.86H397.844V74.46C397.844 78.16 397.224 79.02 394.784 79.98L395.324 81.26ZM412.413 71.2C412.413 68.4 410.193 66.12 407.313 66.12C404.413 66.12 402.153 68.34 402.153 71.2C402.153 74.06 404.413 76.26 407.293 76.26C410.173 76.26 412.413 74.02 412.413 71.2ZM407.253 75.1C405.313 75.1 403.513 73.5 403.513 71.26C403.513 68.94 405.053 67.28 407.273 67.28C409.293 67.28 411.013 68.94 411.013 71.2C411.013 73.54 409.493 75.1 407.253 75.1ZM421.466 74.34C420.986 74.68 420.146 75.1 418.806 75.1C417.146 75.1 416.006 74.24 416.006 72.26V66.38H414.686V72.56C414.686 75.02 416.366 76.26 418.746 76.26C420.506 76.26 421.806 75.82 422.786 74.92V66.38H421.466V74.34ZM427.062 76V69.46C427.162 68.66 427.882 67.42 429.002 67.42C429.522 67.42 429.922 67.68 430.122 67.82L430.742 66.56C430.542 66.44 429.862 66.12 429.122 66.12C428.022 66.12 427.182 67.32 427.062 67.76V66.38H425.742V76H427.062ZM440.501 76V69.7C440.501 67.22 439.241 66.12 437.001 66.12C435.381 66.12 434.301 66.92 433.761 67.4V66.38H432.441V76H433.761V68.64C434.181 68.18 435.261 67.36 436.621 67.36C438.501 67.36 439.181 68.26 439.181 70.32V76H440.501ZM449.558 74.34C448.938 74.82 447.998 75.16 446.738 75.16C445.218 75.16 443.938 74.34 443.938 72.78C443.938 71.36 445.438 70.7 446.678 70.7C448.058 70.7 449.018 71.32 449.558 71.84V74.34ZM450.858 69.74C450.858 67.6 450.058 66.12 446.938 66.12C445.478 66.12 444.398 66.52 443.738 66.84L444.238 67.84C444.538 67.7 445.638 67.26 446.918 67.26C448.638 67.26 449.558 68.18 449.558 69.38V70.72C448.818 69.96 447.558 69.64 446.538 69.64C444.858 69.64 442.558 70.62 442.558 72.78C442.558 74.6 443.858 76.26 446.658 76.26C448.518 76.26 449.958 75.74 450.858 74.9V69.74ZM455.092 76V59.6H453.772V76H455.092Z" fill="#002557"/>
</svg>
