<svg width="126" height="58" viewBox="0 0 126 58" fill="none" xmlns="http://www.w3.org/2000/svg">
    <g clip-path="url(#clip0_7131_91792)">
        <path d="M35.0635 33.279C33.6661 32.2716 32.0118 31.7837 30.1322 31.7837C26.0123 31.7837 23.0554 34.711 23.0554 38.7768C23.0554 43.3981 26.107 46.4204 30.7813 46.4204C32.3049 46.4204 33.5714 46.1584 35.4872 45.4129L36.2354 48.8598C34.8742 49.4787 34.3197 49.6729 33.3461 49.8988C32.3093 50.1247 31.1734 50.2557 29.9068 50.2557C26.5623 50.2557 24.1598 49.4109 22.1494 47.5859C19.8776 45.5349 18.5479 42.3501 18.5479 38.9981C18.5479 35.8766 19.7153 33.044 21.8248 30.9615C23.9659 28.8473 26.3684 27.9709 29.9068 27.9709C32.6339 27.9709 34.775 28.6214 36.6275 30.0219L35.0635 33.279Z" fill="black"/>
        <path d="M51.0292 50.0319H50.2178C48.2706 50.0319 47.6531 49.7067 46.9724 48.374C45.5435 49.675 44.2769 50.2262 42.7534 50.2262C40.1886 50.2262 38.3721 48.5366 38.3721 46.1288C38.3721 45.6093 38.4713 45.0898 38.6335 44.6019C39.1519 43.2015 40.0624 42.4877 42.2711 41.8372L46.5532 40.5994V39.3299C46.5532 37.7037 45.9672 36.9538 44.7052 36.9538C43.5377 36.9538 42.5956 37.5727 42.5956 38.318C42.5956 38.4491 42.6272 38.5123 42.6948 38.7065L38.9941 39.5197C38.8318 39.0634 38.8003 38.9008 38.8003 38.4807C38.8003 35.8109 41.1352 34.2839 45.228 34.2839C48.8296 34.2839 50.4522 35.7792 50.4522 39.0996V45.4105C50.4522 46.7748 50.6145 47.0052 51.6512 47.1L51.0292 50.0319ZM46.5487 43.1066L42.6858 44.376C42.4604 44.9633 42.3928 45.2524 42.3928 45.6454C42.3928 46.6212 42.9788 47.2085 43.9524 47.2085C44.4392 47.2085 45.0252 47.0458 45.5435 46.7522C45.805 46.6212 45.9988 46.4902 46.5487 46.07V43.1066Z" fill="black"/>
        <path d="M61.2211 49.2551C60.0852 49.9057 58.9178 50.2626 57.845 50.2626C55.8347 50.2626 54.8926 49.2235 54.8926 46.9783V37.5775H52.6523V35.1018L54.8926 34.7134V30.1913H58.5617V34.7134H61.8387V37.5775H58.5617V44.313C58.5617 46.0026 58.724 46.4904 59.3415 46.4904C59.7968 46.4904 60.3467 46.2645 61.4195 45.5463L62.6545 48.3743C62.1272 48.6995 61.6403 48.9931 61.2211 49.2551Z" fill="black"/>
        <path d="M77.286 50.0319H76.4744C74.5272 50.0319 73.9097 49.7067 73.2293 48.374C71.8004 49.675 70.5338 50.2262 69.0102 50.2262C66.4454 50.2262 64.6289 48.5366 64.6289 46.1288C64.6289 45.6093 64.7281 45.0898 64.8904 44.6019C65.4087 43.2015 66.3192 42.4877 68.5234 41.8372L72.8056 40.5994V39.3299C72.8056 37.7037 72.2196 36.9538 70.9575 36.9538C69.79 36.9538 68.8479 37.5727 68.8479 38.318C68.8479 38.4491 68.8795 38.5123 68.9471 38.7065L65.2465 39.5197C65.0842 39.0634 65.0526 38.9008 65.0526 38.4807C65.0526 35.8109 67.3875 34.2839 71.4804 34.2839C75.0818 34.2839 76.7044 35.7792 76.7044 39.0996V45.4105C76.7044 46.7748 76.867 47.0052 77.9036 47.1L77.286 50.0319ZM72.8056 43.1066L68.9426 44.376C68.7172 44.9633 68.6496 45.2524 68.6496 45.6454C68.6496 46.6212 69.2356 47.2085 70.2092 47.2085C70.696 47.2085 71.282 47.0458 71.8004 46.7522C72.0618 46.6212 72.2556 46.4902 72.8056 46.07V43.1066Z" fill="black"/>
        <path d="M80.8193 49.8368V26.1245H84.6821V49.8368H80.8193Z" fill="black"/>
        <path d="M95.6855 49.0237C94.9375 51.1695 94.3559 52.3396 93.2512 54.1962C92.3091 55.7593 91.8901 56.3782 90.592 58L87.4098 55.9174C88.8382 54.3905 89.3569 53.74 90.2001 52.439C91.1736 50.912 91.6601 49.9679 92.5032 47.5284L86.9541 34.7123H91.1736L93.8328 41.4479L94.2203 43.2684L94.6445 41.4479L96.9162 34.7123H100.747L95.6855 49.0237Z" fill="black"/>
        <path d="M112.693 38.9102C112.305 38.6482 111.945 38.4224 111.656 38.2597C110.583 37.6092 109.285 37.2207 108.185 37.2207C106.693 37.2207 105.72 37.8079 105.72 38.6527C105.72 39.3349 106.238 39.7595 107.604 40.2474C109.289 40.8346 111.466 41.8421 112.148 42.3299C113.09 43.0121 113.707 44.3447 113.707 45.6819C113.707 48.4466 111.305 50.2672 107.671 50.2672C106.923 50.2672 106.111 50.1678 105.206 49.9735C103.808 49.6799 103.128 49.4224 101.474 48.5731L102.709 45.4199C104.232 46.3641 104.85 46.6577 105.954 47.0146C106.54 47.2088 107.09 47.3083 107.64 47.3083C109.132 47.3083 110.011 46.8203 110.011 46.0072C110.011 45.325 109.524 44.8055 108.487 44.4125L105.891 43.4051C103.227 42.3661 101.997 40.9657 101.997 38.9463C101.997 36.1184 104.462 34.1985 108.131 34.1985C108.843 34.1985 109.691 34.2978 110.628 34.4921C112.057 34.7858 112.576 34.98 113.937 35.7616L112.693 38.9102Z" fill="black"/>
        <path d="M124.115 49.2551C122.978 49.9057 121.811 50.2626 120.738 50.2626C118.728 50.2626 117.786 49.2235 117.786 46.9783V37.5775H115.546V35.1018L117.786 34.7134V30.1913H121.455V34.7134H124.732V37.5775H121.455V44.313C121.455 46.0026 121.617 46.4904 122.235 46.4904C122.691 46.4904 123.24 46.2645 124.313 45.5463L125.548 48.3743C125.025 48.6995 124.538 48.9931 124.115 49.2551Z" fill="black"/>
        <path d="M38.5934 21.761H26.1797V21.1465C28.1405 21.002 28.6994 20.4734 28.6994 18.7975V10.3452C28.6994 8.49306 28.3478 8.02774 26.6755 7.72959V7.11523H37.9804L38.386 10.4672L37.773 10.666C36.6912 8.64217 36.0151 8.19946 33.8469 8.11356L31.1289 8.02774V13.6927L33.2339 13.5979C34.8161 13.512 35.2263 13.1325 35.6635 11.461H36.281V16.8324H35.6635C35.1947 15.188 34.6944 14.7769 33.2339 14.7181L31.1289 14.6052V18.6845C31.1289 20.5051 31.4805 20.74 33.9957 20.74C36.3666 20.74 37.3042 20.1527 38.6835 17.8352L39.3011 18.0114L38.5934 21.761Z" fill="#FF3300"/>
        <path d="M63.52 21.7344V21.1201C64.6018 20.8851 64.9219 20.5328 64.9219 19.5073V19.304L64.0429 9.88056L58.6519 22.3533L53.2924 10.1155L52.4946 17.4835C52.409 18.0978 52.3819 18.5993 52.3819 18.9833C52.3819 20.3612 52.9409 20.858 54.6086 21.1246V21.739H48.3477V21.1246C49.9839 20.7406 50.5744 20.2166 50.7773 18.893L52.0078 11.2629C52.1521 10.1787 52.2422 9.47397 52.2422 9.12164C52.2422 8.18197 51.5976 7.74381 50.1642 7.71217V7.09778H54.6132L59.3009 17.6371L63.8986 7.09778H68.3521V7.71217C66.8556 7.77538 66.3327 8.12323 66.3327 9.12164C66.3327 9.27068 66.3327 9.47397 66.3597 9.70891L67.3559 19.6293C67.4731 20.6548 67.8247 20.98 68.9651 21.1246V21.739H63.52V21.7344Z" fill="#FF3300"/>
        <path d="M38.7598 26.6534C41.9691 25.1898 43.2583 23.0621 43.2583 20.5096L43.1726 10.0607C43.1456 8.39828 42.6002 7.87878 40.5943 7.68451V7.07916H48.0948V7.79743C46.2648 7.96908 45.778 8.45701 45.7194 10.0923L45.5165 19.7643C45.4309 24.1598 43.0239 26.5405 39.0753 27.0555L38.7598 26.6534Z" fill="#FF3300"/>
        <path d="M25.1206 7.08333C22.0014 1.19252 14.9065 -1.55863 8.53738 0.89889C1.66793 3.55517 -1.75328 11.2936 0.897145 18.1828C3.54758 25.0675 11.2689 28.4962 18.143 25.84C18.179 25.8264 18.2151 25.8083 18.2556 25.7948V25.2075C12.0803 27.534 5.1838 24.4395 2.80834 18.2686C0.419351 12.0616 3.5025 5.0866 9.69585 2.68782C14.9922 0.645909 20.843 2.6065 23.9216 7.09688H18.2511V7.71128C20.2705 7.97331 20.7979 8.52894 20.852 10.232L21.0864 18.499L11.4042 7.09688H7.36544V7.71128C9.47044 8.35729 9.93928 9.05747 9.93928 11.4336L9.58765 18.7023C9.50201 20.4325 8.97465 20.9611 6.95527 21.1056V21.7155H14.2079V21.1056C12.0713 21.0152 11.4312 20.4009 11.3997 18.7023L11.2239 10.2863L21.2847 22.2169L22.2808 21.3993L22.6595 10.232C22.6911 8.56058 23.1869 8.0004 25.1161 7.71128V7.09688L25.1206 7.08333Z" fill="#FF3300"/>
    </g>
    <defs>
        <clipPath id="clip0_7131_91792">
            <rect width="126" height="58" fill="white"/>
        </clipPath>
    </defs>
</svg>
