<?xml version="1.0" encoding="UTF-8"?>
<svg version="1.1" xmlns="http://www.w3.org/2000/svg" width="558" height="206">
<path d="M0 0 C1.98 0 3.96 0 6 0 C6 0.66 6 1.32 6 2 C7.32 2 8.64 2 10 2 C10 2.66 10 3.32 10 4 C10.94875 3.95875 11.8975 3.9175 12.875 3.875 C16 4 16 4 18 6 C18.66 6 19.32 6 20 6 C20 5.34 20 4.68 20 4 C19.34 4 18.68 4 18 4 C18 3.34 18 2.68 18 2 C18.66 2 19.32 2 20 2 C20 1.34 20 0.68 20 0 C21.98 0 23.96 0 26 0 C26 0.66 26 1.32 26 2 C26.66 2 27.32 2 28 2 C28 3.32 28 4.64 28 6 C29.32 6 30.64 6 32 6 C32 5.34 32 4.68 32 4 C31.34 4 30.68 4 30 4 C30 3.34 30 2.68 30 2 C34.62 2 39.24 2 44 2 C44 2.66 44 3.32 44 4 C45.32 4 46.64 4 48 4 C48 5.98 48 7.96 48 10 C49.32 10 50.64 10 52 10 C52 8.68 52 7.36 52 6 C52.66 6 53.32 6 54 6 C54 5.34 54 4.68 54 4 C55.98 4 57.96 4 60 4 C60 3.34 60 2.68 60 2 C58.68 2 57.36 2 56 2 C56 1.34 56 0.68 56 0 C59.3 0 62.6 0 66 0 C66 0.66 66 1.32 66 2 C67.32 2 68.64 2 70 2 C70 1.34 70 0.68 70 0 C70.66 0 71.32 0 72 0 C72 0.66 72 1.32 72 2 C72.66 2 73.32 2 74 2 C74 2.66 74 3.32 74 4 C72.68 4 71.36 4 70 4 C70 4.66 70 5.32 70 6 C71.32 6.66 72.64 7.32 74 8 C74 16.58 74 25.16 74 34 C73.34 34 72.68 34 72 34 C72 34.66 72 35.32 72 36 C71.34 36 70.68 36 70 36 C70 35.34 70 34.68 70 34 C69.34 34 68.68 34 68 34 C68 34.66 68 35.32 68 36 C66.68 36 65.36 36 64 36 C64 35.34 64 34.68 64 34 C63.34 34 62.68 34 62 34 C62 34.66 62 35.32 62 36 C61.34 36 60.68 36 60 36 C60 35.34 60 34.68 60 34 C59.34 34 58.68 34 58 34 C58 34.66 58 35.32 58 36 C56.02 36 54.04 36 52 36 C52 35.34 52 34.68 52 34 C51.34 34 50.68 34 50 34 C50 34.66 50 35.32 50 36 C48.02 36 46.04 36 44 36 C44 35.34 44 34.68 44 34 C43.34 34 42.68 34 42 34 C42 34.66 42 35.32 42 36 C40.02 36 38.04 36 36 36 C36 35.34 36 34.68 36 34 C34.02 34 32.04 34 30 34 C30 34.66 30 35.32 30 36 C26.7 36 23.4 36 20 36 C19.505 25.605 19.505 25.605 19 15 C18.67 21.27 18.34 27.54 18 34 C17.34 34 16.68 34 16 34 C16 33.34 16 32.68 16 32 C15.34 32 14.68 32 14 32 C14 33.32 14 34.64 14 36 C2.78 36 -8.44 36 -20 36 C-20.66 34.68 -21.32 33.36 -22 32 C-22.66 32 -23.32 32 -24 32 C-24 32.66 -24 33.32 -24 34 C-24.66 34 -25.32 34 -26 34 C-26 34.66 -26 35.32 -26 36 C-26.66 36 -27.32 36 -28 36 C-28 35.34 -28 34.68 -28 34 C-28.66 34 -29.32 34 -30 34 C-30 34.66 -30 35.32 -30 36 C-32.64 36 -35.28 36 -38 36 C-38 35.34 -38 34.68 -38 34 C-38.66 34 -39.32 34 -40 34 C-40 34.66 -40 35.32 -40 36 C-40.66 36 -41.32 36 -42 36 C-42 35.34 -42 34.68 -42 34 C-42.66 34 -43.32 34 -44 34 C-44 34.66 -44 35.32 -44 36 C-44.66 36 -45.32 36 -46 36 C-46 35.34 -46 34.68 -46 34 C-46.66 34 -47.32 34 -48 34 C-48 31.36 -48 28.72 -48 26 C-47.38125 25.7525 -46.7625 25.505 -46.125 25.25 C-43.64931313 23.79371361 -43.04874998 22.62187494 -42 20 C-41.34 20 -40.68 20 -40 20 C-40 19.34 -40 18.68 -40 18 C-40.66 18 -41.32 18 -42 18 C-42 16.68 -42 15.36 -42 14 C-41.34 14 -40.68 14 -40 14 C-40 12.68 -40 11.36 -40 10 C-40.66 10 -41.32 10 -42 10 C-42 8.02 -42 6.04 -42 4 C-40.02 4 -38.04 4 -36 4 C-36 3.34 -36 2.68 -36 2 C-34.68 2 -33.36 2 -32 2 C-31.7525 2.763125 -31.505 3.52625 -31.25 4.3125 C-30.2125943 7.10595884 -30.2125943 7.10595884 -27.875 8.5625 C-27.25625 9.036875 -26.6375 9.51125 -26 10 C-26 11.32 -26 12.64 -26 14 C-23.48916886 12.74458443 -23.12874554 11.49936512 -22 9 C-21.01 9.33 -20.02 9.66 -19 10 C-19 9.34 -19 8.68 -19 8 C-18.01 8 -17.02 8 -16 8 C-16 6.68 -16 5.36 -16 4 C-13.36 4 -10.72 4 -8 4 C-8 4.66 -8 5.32 -8 6 C-6.68 6 -5.36 6 -4 6 C-4 7.32 -4 8.64 -4 10 C-2.68 10 -1.36 10 0 10 C0 8.68 0 7.36 0 6 C1.98 6.33 3.96 6.66 6 7 C6 6.01 6 5.02 6 4 C4.02 4 2.04 4 0 4 C0 2.68 0 1.36 0 0 Z M64 4 C64 5.32 64 6.64 64 8 C64.66 8 65.32 8 66 8 C66 6.68 66 5.36 66 4 C65.34 4 64.68 4 64 4 Z M21 6 C20.67 6.66 20.34 7.32 20 8 C20.66 8 21.32 8 22 8 C21.67 7.34 21.34 6.68 21 6 Z M25 6 C25.33 6.66 25.66 7.32 26 8 C26.33 7.34 26.66 6.68 27 6 C26.34 6 25.68 6 25 6 Z M34 6 C34 6.66 34 7.32 34 8 C34.66 7.67 35.32 7.34 36 7 C35.34 6.67 34.68 6.34 34 6 Z M-40 8 C-40 8.66 -40 9.32 -40 10 C-39.34 9.67 -38.68 9.34 -38 9 C-38.66 8.67 -39.32 8.34 -40 8 Z M53 8 C54 10 54 10 54 10 Z M-28 14 C-28 15.32 -28 16.64 -28 18 C-26.68 18 -25.36 18 -24 18 C-24 17.34 -24 16.68 -24 16 C-24.66 16 -25.32 16 -26 16 C-26 15.34 -26 14.68 -26 14 C-26.66 14 -27.32 14 -28 14 Z M4 16 C5 18 5 18 5 18 Z M13 16 C14 18 14 18 14 18 Z M-23 18 C-23.33 19.98 -23.66 21.96 -24 24 C-23.01 23.34 -22.02 22.68 -21 22 C-21.66 20.68 -22.32 19.36 -23 18 Z M-12 18 C-12 18.66 -12 19.32 -12 20 C-11.34 20 -10.68 20 -10 20 C-10 19.34 -10 18.68 -10 18 C-10.66 18 -11.32 18 -12 18 Z M4 30 C5 33 5 33 5 33 Z M-36 32 C-35 34 -35 34 -35 34 Z " fill="#F2F3F5" transform="translate(344,126)"/>
<path d="M0 0 C5.28 0 10.56 0 16 0 C16 0.66 16 1.32 16 2 C13.36 2 10.72 2 8 2 C8 2.66 8 3.32 8 4 C10.64 4 13.28 4 16 4 C16 5.32 16 6.64 16 8 C16.66 8 17.32 8 18 8 C18 8.66 18 9.32 18 10 C18.66 10 19.32 10 20 10 C20 9.01 20 8.02 20 7 C22.475 7.495 22.475 7.495 25 8 C25 7.34 25 6.68 25 6 C27.875 5.875 27.875 5.875 31 6 C31.66 6.66 32.32 7.32 33 8 C33 7.34 33 6.68 33 6 C33.99 6.33 34.98 6.66 36 7 C36 7.99 36 8.98 36 10 C37.32 10 38.64 10 40 10 C40 8.02 40 6.04 40 4 C42.64 4 45.28 4 48 4 C48 5.98 48 7.96 48 10 C49.98491642 9.73323796 49.98491642 9.73323796 52 9 C52.33 8.01 52.66 7.02 53 6 C53.99 6.33 54.98 6.66 56 7 C56 4.69 56 2.38 56 0 C59.3 0 62.6 0 66 0 C66 0.66 66 1.32 66 2 C67.32 2 68.64 2 70 2 C70 1.34 70 0.68 70 0 C71.32 0 72.64 0 74 0 C74 0.66 74 1.32 74 2 C74.66 2 75.32 2 76 2 C76 2.66 76 3.32 76 4 C77.32 4 78.64 4 80 4 C80 3.34 80 2.68 80 2 C82.64 2 85.28 2 88 2 C88 1.34 88 0.68 88 0 C88.66 0 89.32 0 90 0 C90 0.66 90 1.32 90 2 C91.32 2 92.64 2 94 2 C94 1.34 94 0.68 94 0 C95.98 0 97.96 0 100 0 C100 0.66 100 1.32 100 2 C101.32 2 102.64 2 104 2 C104 2.66 104 3.32 104 4 C107.3 4 110.6 4 114 4 C114 4.66 114 5.32 114 6 C113.34 6 112.68 6 112 6 C112 6.66 112 7.32 112 8 C112.66 8 113.32 8 114 8 C114 13.94 114 19.88 114 26 C113.34 26 112.68 26 112 26 C112 28.64 112 31.28 112 34 C110.35 34 108.7 34 107 34 C106.505 34.99 106.505 34.99 106 36 C102.7 36 99.4 36 96 36 C96 35.34 96 34.68 96 34 C95.34 34 94.68 34 94 34 C94 28.72 94 23.44 94 18 C93.34 18 92.68 18 92 18 C92 17.34 92 16.68 92 16 C90.68 16 89.36 16 88 16 C88 16.66 88 17.32 88 18 C88.66 18 89.32 18 90 18 C90 18.66 90 19.32 90 20 C89.34 20 88.68 20 88 20 C88 25.28 88 30.56 88 36 C87.34 36 86.68 36 86 36 C86 35.34 86 34.68 86 34 C85.34 34 84.68 34 84 34 C84 34.66 84 35.32 84 36 C82.68 36 81.36 36 80 36 C80 35.34 80 34.68 80 34 C79.34 34 78.68 34 78 34 C78 29.38 78 24.76 78 20 C78.66 20 79.32 20 80 20 C80 19.34 80 18.68 80 18 C79.34 18 78.68 18 78 18 C78 17.34 78 16.68 78 16 C77.34 16 76.68 16 76 16 C76 16.66 76 17.32 76 18 C74.68 18 73.36 18 72 18 C72 23.94 72 29.88 72 36 C66.72 36 61.44 36 56 36 C56 35.34 56 34.68 56 34 C55.34 34 54.68 34 54 34 C54 34.66 54 35.32 54 36 C50 36 46 36 42 36 C39.18528529 37.52146741 36.98864285 39.0110502 34.6875 41.25 C30.77734448 43.79614778 28.48876777 42.91296972 24 42 C24 40.02 24 38.04 24 36 C22.34385343 35.61781233 20.67542976 35.28604898 19 35 C18.67 35.33 18.34 35.66 18 36 C16.00041636 36.04080783 13.99954746 36.04254356 12 36 C12 35.34 12 34.68 12 34 C11.34 34 10.68 34 10 34 C10 34.66 10 35.32 10 36 C6.7 36 3.4 36 0 36 C0 35.34 0 34.68 0 34 C-0.66 34 -1.32 34 -2 34 C-2 31.36 -2 28.72 -2 26 C-1.34 26 -0.68 26 0 26 C0 25.34 0 24.68 0 24 C-0.66 24 -1.32 24 -2 24 C-2 22.02 -2 20.04 -2 18 C-1.34 18 -0.68 18 0 18 C0 16.68 0 15.36 0 14 C-0.66 14 -1.32 14 -2 14 C-2 11.36 -2 8.72 -2 6 C-1.34 6 -0.68 6 0 6 C0 5.34 0 4.68 0 4 C1.98 4 3.96 4 6 4 C6 3.34 6 2.68 6 2 C4.02 2 2.04 2 0 2 C0 1.34 0 0.68 0 0 Z M60 4 C60 5.32 60 6.64 60 8 C60.66 8 61.32 8 62 8 C62 8.66 62 9.32 62 10 C62.66 10 63.32 10 64 10 C64.66 8.02 65.32 6.04 66 4 C64.02 4 62.04 4 60 4 Z M70 4 C70.66 5.32 71.32 6.64 72 8 C72 6.68 72 5.36 72 4 C71.34 4 70.68 4 70 4 Z M88 4 C88 4.66 88 5.32 88 6 C88.66 6 89.32 6 90 6 C90 5.34 90 4.68 90 4 C89.34 4 88.68 4 88 4 Z M94 4 C94 4.66 94 5.32 94 6 C94.66 6 95.32 6 96 6 C96 5.34 96 4.68 96 4 C95.34 4 94.68 4 94 4 Z M100 4 C100 4.66 100 5.32 100 6 C100.66 6 101.32 6 102 6 C102 5.34 102 4.68 102 4 C101.34 4 100.68 4 100 4 Z M76 6 C76.66 6.66 77.32 7.32 78 8 C78 7.34 78 6.68 78 6 C77.34 6 76.68 6 76 6 Z M17 14 C18 16 18 16 18 16 Z M29 18 C28.67 19.98 28.34 21.96 28 24 C28.99 24.495 28.99 24.495 30 25 C30 22.69 30 20.38 30 18 C29.67 18 29.34 18 29 18 Z M38 18 C38 18.66 38 19.32 38 20 C38.66 20 39.32 20 40 20 C40 19.34 40 18.68 40 18 C39.34 18 38.68 18 38 18 Z M108 18 C108 18.66 108 19.32 108 20 C108.66 20 109.32 20 110 20 C110 19.34 110 18.68 110 18 C109.34 18 108.68 18 108 18 Z M48 20 C48 21.98 48 23.96 48 26 C48.66 26 49.32 26 50 26 C50 24.02 50 22.04 50 20 C49.34 20 48.68 20 48 20 Z M18 24 C19 26 19 26 19 26 Z M96 24 C97 26 97 26 97 26 Z M60 28 C60 29.32 60 30.64 60 32 C60.66 32 61.32 32 62 32 C62 31.34 62 30.68 62 30 C62.66 30 63.32 30 64 30 C64 29.34 64 28.68 64 28 C62.68 28 61.36 28 60 28 Z M18 30 C19 32 19 32 19 32 Z M96 30 C96 30.66 96 31.32 96 32 C96.66 31.67 97.32 31.34 98 31 C97.34 30.67 96.68 30.34 96 30 Z M43 32 C44 34 44 34 44 34 Z M34 34 C34 34.66 34 35.32 34 36 C33.01 36.33 32.02 36.66 31 37 C31.99 38.485 31.99 38.485 33 40 C34.32 38.35 35.64 36.7 37 35 C36.01 34.67 35.02 34.34 34 34 Z " fill="#E9ECEE" transform="translate(176,126)"/>
<path d="M0 0 C11.88 0 23.76 0 36 0 C36 1.98 36 3.96 36 6 C35.34 6 34.68 6 34 6 C34 6.66 34 7.32 34 8 C34.66 8 35.32 8 36 8 C36 10.64 36 13.28 36 16 C35.34 16 34.68 16 34 16 C34 18.64 34 21.28 34 24 C31.36 24 28.72 24 26 24 C26 27.3 26 30.6 26 34 C25.34 34 24.68 34 24 34 C24 34.66 24 35.32 24 36 C24.66 36 25.32 36 26 36 C26 36.66 26 37.32 26 38 C27.32 38 28.64 38 30 38 C30 38.66 30 39.32 30 40 C30.66 40 31.32 40 32 40 C32 39.34 32 38.68 32 38 C32.66 38 33.32 38 34 38 C34 38.66 34 39.32 34 40 C34.66 40 35.32 40 36 40 C36 45.33333333 36 50.66666667 36 56 C35.34 56 34.68 56 34 56 C34 56.66 34 57.32 34 58 C32.02 58 30.04 58 28 58 C28 57.34 28 56.68 28 56 C27.34 56 26.68 56 26 56 C26 55.34 26 54.68 26 54 C24.68 54 23.36 54 22 54 C22 54.66 22 55.32 22 56 C21.34 56 20.68 56 20 56 C20 56.66 20 57.32 20 58 C16.7 58 13.4 58 10 58 C10 57.34 10 56.68 10 56 C8.68 56 7.36 56 6 56 C6 54.68 6 53.36 6 52 C5.34 52 4.68 52 4 52 C4 52.66 4 53.32 4 54 C2.68 54 1.36 54 0 54 C0 54.66 0 55.32 0 56 C-1.32 56 -2.64 56 -4 56 C-4 56.66 -4 57.32 -4 58 C-9.94 58 -15.88 58 -22 58 C-23 51 -23 51 -22 49 C-45.265 48.505 -45.265 48.505 -69 48 C-68.67 47.01 -68.34 46.02 -68 45 C-66.68 45.33 -65.36 45.66 -64 46 C-64.33 44.02 -64.66 42.04 -65 40 C-64.01 40 -63.02 40 -62 40 C-62 39.34 -62 38.68 -62 38 C-57.38 38 -52.76 38 -48 38 C-48 36.02 -48 34.04 -48 32 C-42.96476467 31.41132948 -38.01175235 30.9347363 -32.9375 31 C-31.638125 31 -30.33875 31 -29 31 C-28.505 30.505 -28.505 30.505 -28 30 C-26.00041636 29.95919217 -23.99954746 29.95745644 -22 30 C-22 28.68 -22 27.36 -22 26 C-21.34 26 -20.68 26 -20 26 C-20 26.66 -20 27.32 -20 28 C-18.68 28 -17.36 28 -16 28 C-16 26.68 -16 25.36 -16 24 C-16.66 24 -17.32 24 -18 24 C-18 23.34 -18 22.68 -18 22 C-14.04 22 -10.08 22 -6 22 C-6 16.72 -6 11.44 -6 6 C-4.02 6 -2.04 6 0 6 C0 4.02 0 2.04 0 0 Z M32 2 C32 2.66 32 3.32 32 4 C32.66 4 33.32 4 34 4 C34 3.34 34 2.68 34 2 C33.34 2 32.68 2 32 2 Z M-46 36 C-45.34 36.66 -44.68 37.32 -44 38 C-44 37.34 -44 36.68 -44 36 C-44.66 36 -45.32 36 -46 36 Z M-48 38 C-48 38.66 -48 39.32 -48 40 C-47.34 40 -46.68 40 -46 40 C-46 39.34 -46 38.68 -46 38 C-46.66 38 -47.32 38 -48 38 Z M28 40 C28 41.65 28 43.3 28 45 C28.66 44.67 29.32 44.34 30 44 C30 42.68 30 41.36 30 40 C29.34 40 28.68 40 28 40 Z M29 50 C30 52 30 52 30 52 Z M28 54 C28 54.66 28 55.32 28 56 C28.66 56 29.32 56 30 56 C30 55.34 30 54.68 30 54 C29.34 54 28.68 54 28 54 Z " fill="#42D2CB" transform="translate(286,56)"/>
<path d="M0 0 C5.28 0 10.56 0 16 0 C16 1.98 16 3.96 16 6 C15.34 6.33 14.68 6.66 14 7 C16.475 7.99 16.475 7.99 19 9 C19.35707031 8.50886719 19.71414062 8.01773438 20.08203125 7.51171875 C22.90553095 5.28627194 25.15218954 5.70749078 28.6875 5.8125 C30.45673828 5.85310547 30.45673828 5.85310547 32.26171875 5.89453125 C33.61716797 5.94673828 33.61716797 5.94673828 35 6 C35.495 7.485 35.495 7.485 36 9 C36.66 9.33 37.32 9.66 38 10 C38 9.34 38 8.68 38 8 C38.99 7.67 39.98 7.34 41 7 C40.01 6.67 39.02 6.34 38 6 C38 5.34 38 4.68 38 4 C38.66 4 39.32 4 40 4 C40 3.34 40 2.68 40 2 C42.64 2 45.28 2 48 2 C48 6.62 48 11.24 48 16 C48.66 16 49.32 16 50 16 C50 16.66 50 17.32 50 18 C50.66 18 51.32 18 52 18 C52 16.68 52 15.36 52 14 C52.66 14 53.32 14 54 14 C54 12.02 54 10.04 54 8 C54.66 8 55.32 8 56 8 C56 6.68 56 5.36 56 4 C58.64 4 61.28 4 64 4 C64 5.98 64 7.96 64 10 C65.32 10.33 66.64 10.66 68 11 C67.34 11.99 66.68 12.98 66 14 C66.66 14 67.32 14 68 14 C68 15.32 68 16.64 68 18 C68.66 18 69.32 18 70 18 C70 14.7 70 11.4 70 8 C70.66 8 71.32 8 72 8 C72 6.68 72 5.36 72 4 C74.64 4 77.28 4 80 4 C80.94137255 6.82411765 81.11725382 8.52918032 81.09765625 11.44921875 C81.09282227 12.72055664 81.09282227 12.72055664 81.08789062 14.01757812 C81.07532227 15.33918945 81.07532227 15.33918945 81.0625 16.6875 C81.05798828 17.58017578 81.05347656 18.47285156 81.04882812 19.39257812 C81.03704983 21.59511987 81.02060164 23.79752599 81 26 C81.928125 25.95875 82.85625 25.9175 83.8125 25.875 C87 26 87 26 90 28 C90 29.32 90 30.64 90 32 C89.34 32 88.68 32 88 32 C88 33.32 88 34.64 88 36 C84.04 36 80.08 36 76 36 C76 35.34 76 34.68 76 34 C75.34 34 74.68 34 74 34 C74 34.66 74 35.32 74 36 C65.42 36 56.84 36 48 36 C48 35.34 48 34.68 48 34 C47.34 34 46.68 34 46 34 C46 34.66 46 35.32 46 36 C44.02 36 42.04 36 40 36 C40 35.34 40 34.68 40 34 C38.68 34 37.36 34 36 34 C36 34.66 36 35.32 36 36 C32.7 36 29.4 36 26 36 C26 35.34 26 34.68 26 34 C25.34 34 24.68 34 24 34 C24 34.66 24 35.32 24 36 C20.7 36 17.4 36 14 36 C14 35.34 14 34.68 14 34 C12.68 34 11.36 34 10 34 C10 34.66 10 35.32 10 36 C8.68 36 7.36 36 6 36 C6 35.34 6 34.68 6 34 C5.34 34 4.68 34 4 34 C4 34.66 4 35.32 4 36 C2.02 36 0.04 36 -2 36 C-1.67 34.68 -1.34 33.36 -1 32 C-2.485 32.495 -2.485 32.495 -4 33 C-4.66 32.67 -5.32 32.34 -6 32 C-6 32.66 -6 33.32 -6 34 C-9.3 34 -12.6 34 -16 34 C-16 34.66 -16 35.32 -16 36 C-19.3 36 -22.6 36 -26 36 C-26 35.34 -26 34.68 -26 34 C-25.34 34 -24.68 34 -24 34 C-24 33.34 -24 32.68 -24 32 C-24.66 32 -25.32 32 -26 32 C-26 31.34 -26 30.68 -26 30 C-25.34 30 -24.68 30 -24 30 C-24 29.34 -24 28.68 -24 28 C-24.66 28 -25.32 28 -26 28 C-26 25.36 -26 22.72 -26 20 C-25.34 20 -24.68 20 -24 20 C-24 18.68 -24 17.36 -24 16 C-24.66 16 -25.32 16 -26 16 C-26 12.04 -26 8.08 -26 4 C-24.02 4 -22.04 4 -20 4 C-20 3.34 -20 2.68 -20 2 C-17.36 2 -14.72 2 -12 2 C-12 3.32 -12 4.64 -12 6 C-10.68 6 -9.36 6 -8 6 C-8 6.66 -8 7.32 -8 8 C-7.34 8 -6.68 8 -6 8 C-6 9.32 -6 10.64 -6 12 C-5.34 12 -4.68 12 -4 12 C-3.67 10.68 -3.34 9.36 -3 8 C-2.01 8.33 -1.02 8.66 0 9 C0 6.03 0 3.06 0 0 Z M10 4 C10 4.66 10 5.32 10 6 C10.66 6 11.32 6 12 6 C12 5.34 12 4.68 12 4 C11.34 4 10.68 4 10 4 Z M43 6 C44.485 6.99 44.485 6.99 46 8 C46.33 7.34 46.66 6.68 47 6 C45.68 6 44.36 6 43 6 Z M-24 8 C-23 10 -23 10 -23 10 Z M-8 14 C-7 16 -7 16 -7 16 Z M-6 14 C-6 14.66 -6 15.32 -6 16 C-5.34 15.67 -4.68 15.34 -4 15 C-4.66 14.67 -5.32 14.34 -6 14 Z M40 14 C41 16 41 16 41 16 Z M30 18 C30.33 19.32 30.66 20.64 31 22 C31.33 20.68 31.66 19.36 32 18 C31.34 18 30.68 18 30 18 Z M-7 20 C-6 22 -6 22 -6 22 Z M26 20 C26 20.66 26 21.32 26 22 C26.66 22 27.32 22 28 22 C28 21.34 28 20.68 28 20 C27.34 20 26.68 20 26 20 Z " fill="#EEF1F2" transform="translate(72,126)"/>
<path d="M0 0 C0.66 0 1.32 0 2 0 C2 0.66 2 1.32 2 2 C3.32 2 4.64 2 6 2 C6 1.34 6 0.68 6 0 C6.66 0 7.32 0 8 0 C8 1.32 8 2.64 8 4 C7.34 4 6.68 4 6 4 C6 4.66 6 5.32 6 6 C6.99 6.33 7.98 6.66 9 7 C8.67 7.33 8.34 7.66 8 8 C7.91368126 9.34267413 7.89293527 10.68974322 7.90234375 12.03515625 C7.90556641 12.84404297 7.90878906 13.65292969 7.91210938 14.48632812 C7.92048828 15.33646484 7.92886719 16.18660156 7.9375 17.0625 C7.94201172 17.91650391 7.94652344 18.77050781 7.95117188 19.65039062 C7.96299627 21.76695663 7.98093231 23.88348685 8 26 C9.98 26 11.96 26 14 26 C14 22.04 14 18.08 14 14 C15.32 14 16.64 14 18 14 C18 13.34 18 12.68 18 12 C16.68 12 15.36 12 14 12 C14 11.34 14 10.68 14 10 C15.98 10 17.96 10 20 10 C20 8.68 20 7.36 20 6 C20.99 6.33 21.98 6.66 23 7 C22.34 7 21.68 7 21 7 C21 7.66 21 8.32 21 9 C21.66 8.67 22.32 8.34 23 8 C23.65213292 5.97536745 23.65213292 5.97536745 24 4 C26.64 4 29.28 4 32 4 C32 5.32 32 6.64 32 8 C32.66 8 33.32 8 34 8 C34 9.32 34 10.64 34 12 C33.34 12 32.68 12 32 12 C32 12.66 32 13.32 32 14 C32.66 14 33.32 14 34 14 C34.12375 14.61875 34.2475 15.2375 34.375 15.875 C34.87197356 18.19120832 34.87197356 18.19120832 37 20 C37.125 23.125 37.125 23.125 37 26 C37.66 26 38.32 26 39 26 C38.67 19.4 38.34 12.8 38 6 C38.66 6 39.32 6 40 6 C40 4.02 40 2.04 40 0 C45.28 0 50.56 0 56 0 C56 1.32 56 2.64 56 4 C54.02 4 52.04 4 50 4 C50 4.66 50 5.32 50 6 C51.98 6 53.96 6 56 6 C56 15.9 56 25.8 56 36 C54.02 36 52.04 36 50 36 C50 35.34 50 34.68 50 34 C49.34 34 48.68 34 48 34 C48 34.66 48 35.32 48 36 C45.36 36 42.72 36 40 36 C39.505 34.02 39.505 34.02 39 32 C38.34 32 37.68 32 37 32 C37.495 33.98 37.495 33.98 38 36 C36.02 36 34.04 36 32 36 C32 35.34 32 34.68 32 34 C31.34 34 30.68 34 30 34 C30 34.66 30 35.32 30 36 C27.36 36 24.72 36 22 36 C22 35.34 22 34.68 22 34 C20.68 34 19.36 34 18 34 C18 34.66 18 35.32 18 36 C15.36 36 12.72 36 10 36 C10 35.34 10 34.68 10 34 C9.34 34 8.68 34 8 34 C8 34.66 8 35.32 8 36 C6.68 36 5.36 36 4 36 C4 35.34 4 34.68 4 34 C2.68 34 1.36 34 0 34 C0 34.66 0 35.32 0 36 C-0.66 36 -1.32 36 -2 36 C-2 30.06 -2 24.12 -2 18 C-1.34 18 -0.68 18 0 18 C0 15.36 0 12.72 0 10 C-0.66 10 -1.32 10 -2 10 C-2 9.34 -2 8.68 -2 8 C-1.34 8 -0.68 8 0 8 C0.66 6.68 1.32 5.36 2 4 C0.68 4 -0.64 4 -2 4 C-2 3.34 -2 2.68 -2 2 C-1.34 2 -0.68 2 0 2 C0 1.34 0 0.68 0 0 Z M49 6 C48.01 6.66 47.02 7.32 46 8 C47.32 8 48.64 8 50 8 C49.67 7.34 49.34 6.68 49 6 Z M18 18 C18 18.66 18 19.32 18 20 C18.66 20 19.32 20 20 20 C20 19.34 20 18.68 20 18 C19.34 18 18.68 18 18 18 Z " fill="#E5E8EC" transform="translate(432,126)"/>
<path d="M0 0 C11.88 0 23.76 0 36 0 C36 1.98 36 3.96 36 6 C35.34 6 34.68 6 34 6 C34 6.66 34 7.32 34 8 C34.66 8 35.32 8 36 8 C36 10.64 36 13.28 36 16 C35.34 16 34.68 16 34 16 C34 18.64 34 21.28 34 24 C31.36 24 28.72 24 26 24 C26 27.3 26 30.6 26 34 C25.34 34 24.68 34 24 34 C24 34.66 24 35.32 24 36 C24.66 36 25.32 36 26 36 C26 36.66 26 37.32 26 38 C27.32 38 28.64 38 30 38 C30 38.66 30 39.32 30 40 C30.66 40 31.32 40 32 40 C32 39.34 32 38.68 32 38 C32.66 38 33.32 38 34 38 C34 38.66 34 39.32 34 40 C34.66 40 35.32 40 36 40 C36 45.33333333 36 50.66666667 36 56 C35.34 56 34.68 56 34 56 C34 56.66 34 57.32 34 58 C32.02 58 30.04 58 28 58 C28 57.34 28 56.68 28 56 C27.34 56 26.68 56 26 56 C26 55.34 26 54.68 26 54 C24.68 54 23.36 54 22 54 C22 54.66 22 55.32 22 56 C21.34 56 20.68 56 20 56 C20 56.66 20 57.32 20 58 C16.7 58 13.4 58 10 58 C10 57.34 10 56.68 10 56 C8.68 56 7.36 56 6 56 C6 54.68 6 53.36 6 52 C5.34 52 4.68 52 4 52 C4 52.66 4 53.32 4 54 C2.68 54 1.36 54 0 54 C0 54.66 0 55.32 0 56 C-1.32 56 -2.64 56 -4 56 C-4 56.66 -4 57.32 -4 58 C-9.94 58 -15.88 58 -22 58 C-22 56.35 -22 54.7 -22 53 C-21.37544922 52.96559814 -20.75089844 52.93119629 -20.10742188 52.89575195 C-17.2363745 52.72441354 -14.36874501 52.51871386 -11.5 52.3125 C-10.02660156 52.23225586 -10.02660156 52.23225586 -8.5234375 52.15039062 C-2.57670581 51.69447453 1.4977988 50.69496255 6.36132812 47.17578125 C8.43122664 45.69058589 10.59984054 44.82505481 13 44 C13.30550781 44.96679688 13.30550781 44.96679688 13.6171875 45.953125 C14.8667935 48.31153872 14.8667935 48.31153872 17.8203125 48.609375 C18.91085937 48.65578125 20.00140625 48.7021875 21.125 48.75 C22.76855469 48.83507812 22.76855469 48.83507812 24.4453125 48.921875 C25.70988281 48.96054688 25.70988281 48.96054688 27 49 C27 48.34 27 47.68 27 47 C26.37480469 46.9175 25.74960937 46.835 25.10546875 46.75 C23 46 23 46 21.98828125 44.25 C19.17079234 34.86922768 17.86161764 24.78466745 19 15 C20.77915778 12.58836705 21.73147432 12.08311509 24.625 11.1875 C25.40875 10.795625 26.1925 10.40375 27 10 C27.33 8.02 27.66 6.04 28 4 C22.06 3.34 16.12 2.68 10 2 C9.34 3.32 8.68 4.64 8 6 C6.8553125 6.99 6.8553125 6.99 5.6875 8 C2.16962278 11.30059657 0.92703315 15.71924815 -0.69140625 20.16015625 C-2.54523414 24.18323947 -4.50861328 26.32168169 -8.55078125 28.16015625 C-9.46214844 28.45792969 -10.37351562 28.75570312 -11.3125 29.0625 C-14.45289202 30.12310733 -17.41479394 31.1885427 -20.4375 32.5625 C-23.4632621 33.78342155 -26.08718539 34.49631783 -29.25 35.1875 C-37.5870084 37.14727961 -45.29795738 40.75203383 -53.10571289 44.19970703 C-54.70697232 44.87620251 -56.35090628 45.45030209 -58 46 C-56.91589844 45.88140625 -55.83179688 45.7628125 -54.71484375 45.640625 C-38.50088615 44.20636738 -23.00449694 46.57521672 -7 49 C-7.495 49.99 -7.495 49.99 -8 51 C-10.54941373 51.31241371 -13.00361513 51.51303421 -15.5625 51.625 C-16.62887695 51.68300781 -16.62887695 51.68300781 -17.71679688 51.7421875 C-19.47742425 51.83671783 -21.23867728 51.91945817 -23 52 C-22.67 51.01 -22.34 50.02 -22 49 C-45.265 48.505 -45.265 48.505 -69 48 C-68.67 47.01 -68.34 46.02 -68 45 C-66.68 45.33 -65.36 45.66 -64 46 C-64.33 44.02 -64.66 42.04 -65 40 C-64.01 40 -63.02 40 -62 40 C-62 39.34 -62 38.68 -62 38 C-57.38 38 -52.76 38 -48 38 C-48 36.02 -48 34.04 -48 32 C-42.96476467 31.41132948 -38.01175235 30.9347363 -32.9375 31 C-31.638125 31 -30.33875 31 -29 31 C-28.505 30.505 -28.505 30.505 -28 30 C-26.00041636 29.95919217 -23.99954746 29.95745644 -22 30 C-22 28.68 -22 27.36 -22 26 C-21.34 26 -20.68 26 -20 26 C-20 26.66 -20 27.32 -20 28 C-18.68 28 -17.36 28 -16 28 C-16 26.68 -16 25.36 -16 24 C-16.66 24 -17.32 24 -18 24 C-18 23.34 -18 22.68 -18 22 C-14.04 22 -10.08 22 -6 22 C-6 16.72 -6 11.44 -6 6 C-4.02 6 -2.04 6 0 6 C0 4.02 0 2.04 0 0 Z M32 2 C32 2.66 32 3.32 32 4 C32.66 4 33.32 4 34 4 C34 3.34 34 2.68 34 2 C33.34 2 32.68 2 32 2 Z M-46 36 C-45.34 36.66 -44.68 37.32 -44 38 C-44 37.34 -44 36.68 -44 36 C-44.66 36 -45.32 36 -46 36 Z M-48 38 C-48 38.66 -48 39.32 -48 40 C-47.34 40 -46.68 40 -46 40 C-46 39.34 -46 38.68 -46 38 C-46.66 38 -47.32 38 -48 38 Z M28 40 C28 41.65 28 43.3 28 45 C28.66 44.67 29.32 44.34 30 44 C30 42.68 30 41.36 30 40 C29.34 40 28.68 40 28 40 Z M29 50 C30 52 30 52 30 52 Z M28 54 C28 54.66 28 55.32 28 56 C28.66 56 29.32 56 30 56 C30 55.34 30 54.68 30 54 C29.34 54 28.68 54 28 54 Z " fill="#F5FCFC" transform="translate(286,56)"/>
<path d="M0 0 C3.3 0 6.6 0 10 0 C10 0.66 10 1.32 10 2 C11.32 2 12.64 2 14 2 C14 1.34 14 0.68 14 0 C15.32 0 16.64 0 18 0 C18 0.66 18 1.32 18 2 C18.66 2 19.32 2 20 2 C20 2.66 20 3.32 20 4 C21.32 4 22.64 4 24 4 C24 3.34 24 2.68 24 2 C26.64 2 29.28 2 32 2 C32 1.34 32 0.68 32 0 C32.66 0 33.32 0 34 0 C34 0.66 34 1.32 34 2 C35.32 2 36.64 2 38 2 C38 1.34 38 0.68 38 0 C39.98 0 41.96 0 44 0 C44 0.66 44 1.32 44 2 C45.32 2 46.64 2 48 2 C48 2.66 48 3.32 48 4 C51.3 4 54.6 4 58 4 C58 4.66 58 5.32 58 6 C57.34 6 56.68 6 56 6 C56 6.66 56 7.32 56 8 C56.66 8 57.32 8 58 8 C58 13.94 58 19.88 58 26 C57.34 26 56.68 26 56 26 C56 28.64 56 31.28 56 34 C54.35 34 52.7 34 51 34 C50.505 34.99 50.505 34.99 50 36 C46.7 36 43.4 36 40 36 C40 35.34 40 34.68 40 34 C39.34 34 38.68 34 38 34 C38 28.72 38 23.44 38 18 C37.34 18 36.68 18 36 18 C36 17.34 36 16.68 36 16 C34.68 16 33.36 16 32 16 C32 16.66 32 17.32 32 18 C32.66 18 33.32 18 34 18 C34 18.66 34 19.32 34 20 C33.34 20 32.68 20 32 20 C32 25.28 32 30.56 32 36 C31.34 36 30.68 36 30 36 C30 35.34 30 34.68 30 34 C29.34 34 28.68 34 28 34 C28 34.66 28 35.32 28 36 C26.68 36 25.36 36 24 36 C24 35.34 24 34.68 24 34 C23.34 34 22.68 34 22 34 C22 29.38 22 24.76 22 20 C22.66 20 23.32 20 24 20 C24 19.34 24 18.68 24 18 C23.34 18 22.68 18 22 18 C22 17.34 22 16.68 22 16 C21.34 16 20.68 16 20 16 C20 16.66 20 17.32 20 18 C18.68 18 17.36 18 16 18 C16 22.62 16 27.24 16 32 C15.67 32 15.34 32 15 32 C14.505 20.615 14.505 20.615 14 9 C12.02 8.34 10.04 7.68 8 7 C8.66 6.67 9.32 6.34 10 6 C10 5.34 10 4.68 10 4 C8.02 4 6.04 4 4 4 C4 5.32 4 6.64 4 8 C4.66 8 5.32 8 6 8 C6 8.66 6 9.32 6 10 C6.66 10 7.32 10 8 10 C8 15.94 8 21.88 8 28 C6.35 28 4.7 28 3 28 C3 21.4 3 14.8 3 8 C1.35 8 -0.3 8 -2 8 C-2 14.27 -2 20.54 -2 27 C-3.65 27.33 -5.3 27.66 -7 28 C-7.33 27.34 -7.66 26.68 -8 26 C-7.34 26 -6.68 26 -6 26 C-6 24.02 -6 22.04 -6 20 C-6.66 20 -7.32 20 -8 20 C-8 16.7 -8 13.4 -8 10 C-6.68 9.67 -5.36 9.34 -4 9 C-3.67 8.01 -3.34 7.02 -3 6 C-2.01 6.33 -1.02 6.66 0 7 C0 4.69 0 2.38 0 0 Z M14 4 C14.66 5.32 15.32 6.64 16 8 C16 6.68 16 5.36 16 4 C15.34 4 14.68 4 14 4 Z M32 4 C32 4.66 32 5.32 32 6 C32.66 6 33.32 6 34 6 C34 5.34 34 4.68 34 4 C33.34 4 32.68 4 32 4 Z M38 4 C38 4.66 38 5.32 38 6 C38.66 6 39.32 6 40 6 C40 5.34 40 4.68 40 4 C39.34 4 38.68 4 38 4 Z M44 4 C44 4.66 44 5.32 44 6 C44.66 6 45.32 6 46 6 C46 5.34 46 4.68 46 4 C45.34 4 44.68 4 44 4 Z M20 6 C20.66 6.66 21.32 7.32 22 8 C22 7.34 22 6.68 22 6 C21.34 6 20.68 6 20 6 Z M52 18 C52 18.66 52 19.32 52 20 C52.66 20 53.32 20 54 20 C54 19.34 54 18.68 54 18 C53.34 18 52.68 18 52 18 Z M40 24 C41 26 41 26 41 26 Z M40 30 C40 30.66 40 31.32 40 32 C40.66 31.67 41.32 31.34 42 31 C41.34 30.67 40.68 30.34 40 30 Z " fill="#F9FAFB" transform="translate(232,126)"/>
<path d="M0 0 C3.3 0 6.6 0 10 0 C10 0.66 10 1.32 10 2 C11.32 2 12.64 2 14 2 C14 1.34 14 0.68 14 0 C14.66 0 15.32 0 16 0 C16 0.66 16 1.32 16 2 C16.66 2 17.32 2 18 2 C18 2.66 18 3.32 18 4 C16.68 4 15.36 4 14 4 C14 4.66 14 5.32 14 6 C15.32 6.66 16.64 7.32 18 8 C18 16.58 18 25.16 18 34 C17.34 34 16.68 34 16 34 C16 34.66 16 35.32 16 36 C15.34 36 14.68 36 14 36 C14 35.34 14 34.68 14 34 C13.34 34 12.68 34 12 34 C12 34.66 12 35.32 12 36 C10.68 36 9.36 36 8 36 C8 35.34 8 34.68 8 34 C7.34 34 6.68 34 6 34 C6 34.66 6 35.32 6 36 C5.34 36 4.68 36 4 36 C4 35.34 4 34.68 4 34 C3.34 34 2.68 34 2 34 C2 34.66 2 35.32 2 36 C0.02 36 -1.96 36 -4 36 C-4 35.34 -4 34.68 -4 34 C-4.66 34 -5.32 34 -6 34 C-6 34.66 -6 35.32 -6 36 C-7.98 36 -9.96 36 -12 36 C-12 35.34 -12 34.68 -12 34 C-12.886875 34.0825 -13.77375 34.165 -14.6875 34.25 C-18.74088462 33.94408418 -20.16191707 32.83808293 -23 30 C-24.14544249 26.56367253 -24.2397802 23.74568045 -24.3125 20.125 C-24.34988281 18.91070312 -24.38726562 17.69640625 -24.42578125 16.4453125 C-23.92400589 12.38507518 -22.96790786 10.77559159 -20 8 C-17.27737093 7.1917195 -14.77379772 7.44409426 -12 8 C-9.75 9.5625 -9.75 9.5625 -8 11 C-5.79199472 10.78282648 -5.79199472 10.78282648 -4 10 C-4 8.68 -4 7.36 -4 6 C-3.34 6 -2.68 6 -2 6 C-2 5.34 -2 4.68 -2 4 C-0.02 4 1.96 4 4 4 C4 3.34 4 2.68 4 2 C2.68 2 1.36 2 0 2 C0 1.34 0 0.68 0 0 Z M8 4 C8 5.32 8 6.64 8 8 C8.66 8 9.32 8 10 8 C10 6.68 10 5.36 10 4 C9.34 4 8.68 4 8 4 Z M-3 8 C-2 10 -2 10 -2 10 Z " fill="#F4F6F7" transform="translate(400,126)"/>
<path d="M0 0 C2.64 0 5.28 0 8 0 C8 1.32 8 2.64 8 4 C9.32 4 10.64 4 12 4 C12 4.66 12 5.32 12 6 C12.66 6 13.32 6 14 6 C14 7.32 14 8.64 14 10 C14.66 10 15.32 10 16 10 C16.33 8.68 16.66 7.36 17 6 C21.29 6 25.58 6 30 6 C30 6.66 30 7.32 30 8 C30.99 8 31.98 8 33 8 C34.60503133 11.21006265 34.26782728 14.66431131 34.3125 18.1875 C34.34150391 18.93064453 34.37050781 19.67378906 34.40039062 20.43945312 C34.46490878 26.10216176 33.15458189 29.30234846 30 34 C28.68 34 27.36 34 26 34 C26 33.34 26 32.68 26 32 C25.34 32 24.68 32 24 32 C24 32.66 24 33.32 24 34 C22.02 34 20.04 34 18 34 C18.33 32.68 18.66 31.36 19 30 C18.01 30.33 17.02 30.66 16 31 C15.34 30.67 14.68 30.34 14 30 C14 30.66 14 31.32 14 32 C10.7 32 7.4 32 4 32 C4 32.66 4 33.32 4 34 C0.7 34 -2.6 34 -6 34 C-6 33.34 -6 32.68 -6 32 C-5.34 32 -4.68 32 -4 32 C-4 31.34 -4 30.68 -4 30 C-4.66 30 -5.32 30 -6 30 C-6 29.34 -6 28.68 -6 28 C-5.34 28 -4.68 28 -4 28 C-4 27.34 -4 26.68 -4 26 C-4.66 26 -5.32 26 -6 26 C-6 23.36 -6 20.72 -6 18 C-5.34 18 -4.68 18 -4 18 C-4 16.68 -4 15.36 -4 14 C-4.66 14 -5.32 14 -6 14 C-6 10.04 -6 6.08 -6 2 C-4.02 2 -2.04 2 0 2 C0 1.34 0 0.68 0 0 Z M-4 6 C-3 8 -3 8 -3 8 Z M12 12 C13 14 13 14 13 14 Z M14 12 C14 12.66 14 13.32 14 14 C14.66 13.67 15.32 13.34 16 13 C15.34 12.67 14.68 12.34 14 12 Z M13 18 C14 20 14 20 14 20 Z " fill="#E6E9EC" transform="translate(52,128)"/>
<path d="M0 0 C5.28 0 10.56 0 16 0 C16 1.98 16 3.96 16 6 C15.01 6.495 15.01 6.495 14 7 C16.475 7.99 16.475 7.99 19 9 C19.35707031 8.50886719 19.71414062 8.01773438 20.08203125 7.51171875 C22.90553095 5.28627194 25.15218954 5.70749078 28.6875 5.8125 C30.45673828 5.85310547 30.45673828 5.85310547 32.26171875 5.89453125 C33.61716797 5.94673828 33.61716797 5.94673828 35 6 C35.495 7.485 35.495 7.485 36 9 C36.66 9.33 37.32 9.66 38 10 C38 9.34 38 8.68 38 8 C38.99 7.67 39.98 7.34 41 7 C40.01 6.67 39.02 6.34 38 6 C38 5.34 38 4.68 38 4 C38.66 4 39.32 4 40 4 C40 3.34 40 2.68 40 2 C42.64 2 45.28 2 48 2 C48 4.31 48 6.62 48 9 C47.01 8.34 46.02 7.68 45 7 C44.01 7.33 43.02 7.66 42 8 C42 16.58 42 25.16 42 34 C43.32 34 44.64 34 46 34 C46 34.66 46 35.32 46 36 C44.02 36 42.04 36 40 36 C40 35.34 40 34.68 40 34 C38.68 34 37.36 34 36 34 C36 34.66 36 35.32 36 36 C32.7 36 29.4 36 26 36 C26 35.34 26 34.68 26 34 C25.34 34 24.68 34 24 34 C24 34.66 24 35.32 24 36 C20.7 36 17.4 36 14 36 C14 35.34 14 34.68 14 34 C13.01 33.67 12.02 33.34 11 33 C11.32597168 32.4337793 11.65194336 31.86755859 11.98779297 31.28417969 C13.09727314 28.78049023 13.23207325 27.17342082 13.1953125 24.453125 C13.18886719 23.60878906 13.18242188 22.76445312 13.17578125 21.89453125 C13.15902344 21.02183594 13.14226562 20.14914063 13.125 19.25 C13.11597656 18.36183594 13.10695313 17.47367188 13.09765625 16.55859375 C13.07414577 14.37211942 13.04128499 12.18619906 13 10 C12.01 10 11.02 10 10 10 C10 9.34 10 8.68 10 8 C6.7 8.33 3.4 8.66 0 9 C0 6.03 0 3.06 0 0 Z M10 4 C10 4.66 10 5.32 10 6 C10.66 6 11.32 6 12 6 C12 5.34 12 4.68 12 4 C11.34 4 10.68 4 10 4 Z M40 14 C41 16 41 16 41 16 Z M30 18 C30.33 19.32 30.66 20.64 31 22 C31.33 20.68 31.66 19.36 32 18 C31.34 18 30.68 18 30 18 Z M26 20 C26 20.66 26 21.32 26 22 C26.66 22 27.32 22 28 22 C28 21.34 28 20.68 28 20 C27.34 20 26.68 20 26 20 Z " fill="#F3F5F5" transform="translate(72,126)"/>
<path d="M0 0 C5.28 0 10.56 0 16 0 C16 0.66 16 1.32 16 2 C13.36 2 10.72 2 8 2 C8 2.66 8 3.32 8 4 C10.64 4 13.28 4 16 4 C16 5.32 16 6.64 16 8 C16.66 8 17.32 8 18 8 C18 8.66 18 9.32 18 10 C18.66 10 19.32 10 20 10 C20 9.01 20 8.02 20 7 C21.32 7.66 22.64 8.32 24 9 C23.51273438 9.33 23.02546875 9.66 22.5234375 10 C20.18451703 13.07058277 20.56573941 16.29950516 20.625 20 C20.61339844 20.72445312 20.60179687 21.44890625 20.58984375 22.1953125 C20.55274358 26.3351198 20.55274358 26.3351198 22.51171875 29.83203125 C23.00285156 30.21746094 23.49398437 30.60289062 24 31 C24.1875 33.6875 24.1875 33.6875 24 36 C22.7934375 35.7215625 22.7934375 35.7215625 21.5625 35.4375 C20.716875 35.293125 19.87125 35.14875 19 35 C18.67 35.33 18.34 35.66 18 36 C16.00041636 36.04080783 13.99954746 36.04254356 12 36 C12 35.34 12 34.68 12 34 C11.34 34 10.68 34 10 34 C10 34.66 10 35.32 10 36 C6.7 36 3.4 36 0 36 C0 35.34 0 34.68 0 34 C-0.66 34 -1.32 34 -2 34 C-2 31.36 -2 28.72 -2 26 C-1.34 26 -0.68 26 0 26 C0 25.34 0 24.68 0 24 C-0.66 24 -1.32 24 -2 24 C-2 22.02 -2 20.04 -2 18 C-1.34 18 -0.68 18 0 18 C0 16.68 0 15.36 0 14 C-0.66 14 -1.32 14 -2 14 C-2 11.36 -2 8.72 -2 6 C-1.34 6 -0.68 6 0 6 C0 5.34 0 4.68 0 4 C1.98 4 3.96 4 6 4 C6 3.34 6 2.68 6 2 C4.02 2 2.04 2 0 2 C0 1.34 0 0.68 0 0 Z M17 14 C18 16 18 16 18 16 Z M18 24 C19 26 19 26 19 26 Z M18 30 C19 32 19 32 19 32 Z " fill="#EFF2F4" transform="translate(176,126)"/>
<path d="M0 0 C5.28 0 10.56 0 16 0 C16.33 0.99 16.66 1.98 17 3 C17.66 3 18.32 3 19 3 C19 2.01 19 1.02 19 0 C21.3125 -0.3125 21.3125 -0.3125 24 0 C25.8125 2.5 25.8125 2.5 27 5 C27.66 3.68 28.32 2.36 29 1 C30.65 1 32.3 1 34 1 C33.7834375 1.69222656 33.566875 2.38445312 33.34375 3.09765625 C30.91745477 11.62338809 30.67577071 19.20978378 31 28 C27.7 28 24.4 28 21 28 C21 27.34 21 26.68 21 26 C20.34 26 19.68 26 19 26 C19 20.72 19 15.44 19 10 C18.34 10 17.68 10 17 10 C17 9.34 17 8.68 17 8 C15.68 8 14.36 8 13 8 C13 8.66 13 9.32 13 10 C13.66 10 14.32 10 15 10 C15 10.66 15 11.32 15 12 C14.34 12 13.68 12 13 12 C13 17.28 13 22.56 13 28 C12.34 28 11.68 28 11 28 C11 27.34 11 26.68 11 26 C10.34 26 9.68 26 9 26 C9 26.66 9 27.32 9 28 C7.68 28 6.36 28 5 28 C5 27.34 5 26.68 5 26 C4.34 26 3.68 26 3 26 C3 21.38 3 16.76 3 12 C3.66 12 4.32 12 5 12 C5 10.02 5 8.04 5 6 C3.35 6 1.7 6 0 6 C0 4.02 0 2.04 0 0 Z M21 16 C22 18 22 18 22 18 Z M21 22 C21 22.66 21 23.32 21 24 C21.66 23.67 22.32 23.34 23 23 C22.34 22.67 21.68 22.34 21 22 Z " fill="#E4E8EB" transform="translate(251,134)"/>
<path d="M0 0 C1.65 0 3.3 0 5 0 C6 1 6 1 6.0625 4.5625 C6.041875 5.696875 6.02125 6.83125 6 8 C6.66 8 7.32 8 8 8 C8 8.66 8 9.32 8 10 C8.66 10 9.32 10 10 10 C10 9.34 10 8.68 10 8 C10.61875 7.95875 11.2375 7.9175 11.875 7.875 C12.57625 7.58625 13.2775 7.2975 14 7 C15.3045656 4.00384054 15.3045656 4.00384054 16 1 C17.65 1 19.3 1 21 1 C27 16.84466019 27 16.84466019 27 24 C25.68 24 24.36 24 23 24 C22.505 21.525 22.505 21.525 22 19 C20.02 19 18.04 19 16 19 C15.67 20.98 15.34 22.96 15 25 C13.700625 24.979375 12.40125 24.95875 11.0625 24.9375 C9.70834367 24.91600546 8.35243917 24.92851801 7 25 C6.67 25.33 6.34 25.66 6 26 C4.02 26 2.04 26 0 26 C0 17.42 0 8.84 0 0 Z " fill="#E9EEF0" transform="translate(114,134)"/>
<path d="M0 0 C2.98617258 0.24559176 4.33527991 0.77275578 7.0625 2.25 C10.27115094 7.66459846 9.7582665 13.4802832 9.0625 19.625 C7.65253052 23.32998474 7.65253052 23.32998474 5.0625 24.625 C2.78515625 24.8984375 2.78515625 24.8984375 0.125 25 C-1.18791016 25.07347656 -1.18791016 25.07347656 -2.52734375 25.1484375 C-4.9375 24.625 -4.9375 24.625 -6.7265625 22.5390625 C-8.1728925 19.05853934 -8.37094361 16.38933365 -8.375 12.625 C-8.39433594 11.42875 -8.41367187 10.2325 -8.43359375 9 C-7.60290338 3.34868911 -5.64995125 0.89681766 0 0 Z " fill="#596777" transform="translate(383.9375,133.375)"/>
<path d="M0 0 C2.64 0 5.28 0 8 0 C8 2.31 8 4.62 8 7 C7.01 6.34 6.02 5.68 5 5 C4.01 5.33 3.02 5.66 2 6 C2 14.58 2 23.16 2 32 C3.32 32 4.64 32 6 32 C6 32.66 6 33.32 6 34 C4.02 34 2.04 34 0 34 C0 33.34 0 32.68 0 32 C-1.32 32 -2.64 32 -4 32 C-4 32.66 -4 33.32 -4 34 C-7.3 34 -10.6 34 -14 34 C-14 33.34 -14 32.68 -14 32 C-11.03 31.01 -8.06 30.02 -5 29 C-4.67 26.36 -4.34 23.72 -4 21 C-5.32 21 -6.64 21 -8 21 C-8.33 22.32 -8.66 23.64 -9 25 C-10.65614657 25.38218767 -12.32457024 25.71395102 -14 26 C-15 25 -15 25 -15.09765625 22.05859375 C-15.08605469 20.86363281 -15.07445313 19.66867188 -15.0625 18.4375 C-15.05347656 17.23996094 -15.04445313 16.04242188 -15.03515625 14.80859375 C-15.02355469 13.88175781 -15.01195313 12.95492187 -15 12 C-13.35 11.67 -11.7 11.34 -10 11 C-9.01 12.485 -9.01 12.485 -8 14 C-5.94074861 14.72382467 -5.94074861 14.72382467 -4 15 C-4.33 12.36 -4.66 9.72 -5 7 C-4.01 7.33 -3.02 7.66 -2 8 C-2 7.34 -2 6.68 -2 6 C-1.01 5.67 -0.02 5.34 1 5 C0.01 4.67 -0.98 4.34 -2 4 C-2 3.34 -2 2.68 -2 2 C-1.34 2 -0.68 2 0 2 C0 1.34 0 0.68 0 0 Z M0 12 C1 14 1 14 1 14 Z M-10 16 C-9.67 17.32 -9.34 18.64 -9 20 C-8.67 18.68 -8.34 17.36 -8 16 C-8.66 16 -9.32 16 -10 16 Z M-14 18 C-14 18.66 -14 19.32 -14 20 C-13.34 20 -12.68 20 -12 20 C-12 19.34 -12 18.68 -12 18 C-12.66 18 -13.32 18 -14 18 Z " fill="#FBFCFC" transform="translate(112,128)"/>
<path d="M0 0 C1.258125 -0.04125 2.51625 -0.0825 3.8125 -0.125 C4.52019531 -0.14820313 5.22789062 -0.17140625 5.95703125 -0.1953125 C8 0 8 0 11 2 C11.38818359 3.83178711 11.38818359 3.83178711 11.3984375 6.02734375 C11.40423828 7.21553711 11.40423828 7.21553711 11.41015625 8.42773438 C11.39855469 9.25595703 11.38695312 10.08417969 11.375 10.9375 C11.38660156 11.76185547 11.39820313 12.58621094 11.41015625 13.43554688 C11.40628906 14.22896484 11.40242188 15.02238281 11.3984375 15.83984375 C11.39505371 16.56550537 11.39166992 17.29116699 11.38818359 18.03881836 C10.89302155 20.54047666 9.99364068 21.45503494 8 23 C7.34 23 6.68 23 6 23 C6 23.99 6 24.98 6 26 C4.35 26 2.7 26 1 26 C1 25.01 1 24.02 1 23 C0.195625 22.71125 -0.60875 22.4225 -1.4375 22.125 C-4 21 -4 21 -5 19 C-5.07181821 16.28239892 -5.09299506 13.59140612 -5.0625 10.875 C-5.05798828 10.12089844 -5.05347656 9.36679688 -5.04882812 8.58984375 C-5.03703499 6.72652873 -5.01909942 4.86325445 -5 3 C-3.68 2.34 -2.36 1.68 -1 1 C-1 1.66 -1 2.32 -1 3 C-0.01 2.67 0.98 2.34 2 2 C1.34 1.34 0.68 0.68 0 0 Z M4 9 C3.67 10.98 3.34 12.96 3 15 C3.99 15.495 3.99 15.495 5 16 C5 13.69 5 11.38 5 9 C4.67 9 4.34 9 4 9 Z " fill="#3A4A5A" transform="translate(201,135)"/>
<path d="M0 0 C3.63 0 7.26 0 11 0 C14.12112952 3.12112952 13.72204219 6.73136216 14 11 C14.05414063 11.82113281 14.10828125 12.64226562 14.1640625 13.48828125 C14.32842004 18.05293834 14.32842004 18.05293834 14 20 C13.01 20.99 12.02 21.98 11 23 C7.37 23 3.74 23 0 23 C0 15.41 0 7.82 0 0 Z " fill="#445667" transform="translate(473,135)"/>
<path d="M0 0 C1.65 0 3.3 0 5 0 C6.32 2.97 7.64 5.94 9 9 C9.33 6.36 9.66 3.72 10 1 C11.65 1 13.3 1 15 1 C15 8.59 15 16.18 15 24 C13.35 24 11.7 24 10 24 C8.68 21.03 7.36 18.06 6 15 C5.67 17.97 5.34 20.94 5 24 C3.35 24 1.7 24 0 24 C0 16.08 0 8.16 0 0 Z " fill="#4D5D6C" transform="translate(399,134)"/>
<path d="M0 0 C2.64 0 5.28 0 8 0 C8 1.32 8 2.64 8 4 C9.32 4 10.64 4 12 4 C12 4.66 12 5.32 12 6 C12.66 6 13.32 6 14 6 C14 7.32 14 8.64 14 10 C14.66 10 15.32 10 16 10 C16.33 8.68 16.66 7.36 17 6 C17.99 6.66 18.98 7.32 20 8 C18.35 9.65 16.7 11.3 15 13 C12 12 12 12 9.6875 9.4375 C7.20641242 6.7411836 7.20641242 6.7411836 3.875 6.5 C1.06360717 6.82924505 1.06360717 6.82924505 -0.9375 8.0625 C-2.25045665 10.12624976 -2.25045665 10.12624976 -2.1875 13.375 C-0.87086718 17.39419492 -0.39280238 17.72828052 3.0625 19.75 C3.79597656 20.11609375 4.52945313 20.4821875 5.28515625 20.859375 C5.85105469 21.23578125 6.41695312 21.6121875 7 22 C7 22.99 7 23.98 7 25 C5.35 25 3.7 25 2 25 C2 24.34 2 23.68 2 23 C1.01 23 0.02 23 -1 23 C-1.41870553 25.33071879 -1.41870553 25.33071879 -1 28 C1.4390706 30.20142332 1.4390706 30.20142332 4 32 C4 32.66 4 33.32 4 34 C0.7 34 -2.6 34 -6 34 C-6 33.34 -6 32.68 -6 32 C-5.34 32 -4.68 32 -4 32 C-4 31.34 -4 30.68 -4 30 C-4.66 30 -5.32 30 -6 30 C-6 29.34 -6 28.68 -6 28 C-5.34 28 -4.68 28 -4 28 C-4 27.34 -4 26.68 -4 26 C-4.66 26 -5.32 26 -6 26 C-6 23.36 -6 20.72 -6 18 C-5.34 18 -4.68 18 -4 18 C-4 16.68 -4 15.36 -4 14 C-4.66 14 -5.32 14 -6 14 C-6 10.04 -6 6.08 -6 2 C-4.02 2 -2.04 2 0 2 C0 1.34 0 0.68 0 0 Z M-4 6 C-3 8 -3 8 -3 8 Z " fill="#F8FAFA" transform="translate(52,128)"/>
<path d="M0 0 C0 7.59 0 15.18 0 23 C1.65 23 3.3 23 5 23 C5 19.7 5 16.4 5 13 C8.34905453 16.34905453 8.89470285 18.49378854 10 23 C11.65 23 13.3 23 15 23 C11.91190305 24.76462683 10.76687864 25 7 25 C7 25.66 7 26.32 7 27 C6.34 27 5.68 27 5 27 C5 26.34 5 25.68 5 25 C4.34 25 3.68 25 3 25 C3 25.66 3 26.32 3 27 C1.02 27 -0.96 27 -3 27 C-3 26.34 -3 25.68 -3 25 C-3.66 25 -4.32 25 -5 25 C-5 25.66 -5 26.32 -5 27 C-6.98 27 -8.96 27 -11 27 C-11 26.34 -11 25.68 -11 25 C-12.98 25 -14.96 25 -17 25 C-17.33 24.34 -17.66 23.68 -18 23 C-14.7 22.34 -11.4 21.68 -8 21 C-7.13580777 18.40742331 -6.82419068 16.65962293 -6.68359375 13.98828125 C-6.64169922 13.23095703 -6.59980469 12.47363281 -6.55664062 11.69335938 C-6.51732422 10.90767578 -6.47800781 10.12199219 -6.4375 9.3125 C-6.39431641 8.51521484 -6.35113281 7.71792969 -6.30664062 6.89648438 C-6.20072632 4.93118553 -6.09987449 2.96561504 -6 1 C-3 0 -3 0 0 0 Z " fill="#EFF2F4" transform="translate(399,135)"/>
<path d="M0 0 C1.90625 0.38671875 1.90625 0.38671875 4.40625 2.07421875 C6.15258224 4.76648096 6.25607212 6.23831969 5.90625 9.38671875 C4.58625 9.38671875 3.26625 9.38671875 1.90625 9.38671875 C1.24625 8.39671875 0.58625 7.40671875 -0.09375 6.38671875 C-1.41375 6.38671875 -2.73375 6.38671875 -4.09375 6.38671875 C-4.09375 10.67671875 -4.09375 14.96671875 -4.09375 19.38671875 C-2.77375 19.38671875 -1.45375 19.38671875 -0.09375 19.38671875 C0.23625 18.06671875 0.56625 16.74671875 0.90625 15.38671875 C2.55625 15.38671875 4.20625 15.38671875 5.90625 15.38671875 C5.41796875 21.44140625 5.41796875 21.44140625 4.90625 23.38671875 C1.15577518 25.88703529 -0.65231266 25.92275429 -5.09375 25.38671875 C-8.78321945 22.61292314 -9.96979765 21.14506076 -10.72265625 16.5390625 C-10.72660691 15.13394577 -10.70387571 13.72853368 -10.65625 12.32421875 C-10.66720703 11.61716797 -10.67816406 10.91011719 -10.68945312 10.18164062 C-10.64119794 6.75552262 -10.3352151 4.72012023 -8.30859375 1.921875 C-5.32389421 -0.146885 -3.53010603 -0.19099454 0 0 Z " fill="#354656" transform="translate(334.09375,133.61328125)"/>
<path d="M0 0 C1.98 0 3.96 0 6 0 C7.80394875 1.80394875 7.23705789 4.56677799 7.31640625 7.00390625 C7.37924805 8.82631836 7.37924805 8.82631836 7.44335938 10.68554688 C7.48267578 11.96494141 7.52199219 13.24433594 7.5625 14.5625 C7.60568359 15.84576172 7.64886719 17.12902344 7.69335938 18.45117188 C7.79984719 21.63397445 7.90046421 24.81697243 8 28 C2.72 28 -2.56 28 -8 28 C-7.67 26.68 -7.34 25.36 -7 24 C-6.01 23.67 -5.02 23.34 -4 23 C-3.34 23.33 -2.68 23.66 -2 24 C-2 23.34 -2 22.68 -2 22 C-1.34 22 -0.68 22 0 22 C0 14.74 0 7.48 0 0 Z " fill="#ECEEF0" transform="translate(240,134)"/>
<path d="M0 0 C1.65 0 3.3 0 5 0 C5.08728882 3.24983 5.14048658 6.4993575 5.1875 9.75 C5.21263672 10.67039063 5.23777344 11.59078125 5.26367188 12.5390625 C5.27333984 13.42851562 5.28300781 14.31796875 5.29296875 15.234375 C5.3086792 16.05131836 5.32438965 16.86826172 5.34057617 17.70996094 C4.91672757 20.55992499 3.96085083 21.91786245 2 24 C-0.375 24.4609375 -0.375 24.4609375 -3 24.375 C-3.86625 24.36210937 -4.7325 24.34921875 -5.625 24.3359375 C-8 24 -8 24 -11 22 C-11.34057617 19.84521484 -11.34057617 19.84521484 -11.29296875 17.2109375 C-11.2784668 15.79941406 -11.2784668 15.79941406 -11.26367188 14.359375 C-11.23853516 13.37453125 -11.21339844 12.3896875 -11.1875 11.375 C-11.17396484 10.38242188 -11.16042969 9.38984375 -11.14648438 8.3671875 C-11.11105743 5.91091928 -11.06166196 3.45572715 -11 1 C-9.68 1 -8.36 1 -7 1 C-6.93941406 2.13179687 -6.87882813 3.26359375 -6.81640625 4.4296875 C-6.73200083 5.91147145 -6.64735283 7.3932416 -6.5625 8.875 C-6.52318359 9.62136719 -6.48386719 10.36773437 -6.44335938 11.13671875 C-6.28426376 15.19986864 -6.28426376 15.19986864 -5 19 C-3.68 19 -2.36 19 -1 19 C-0.67 12.73 -0.34 6.46 0 0 Z " fill="#3D4C5D" transform="translate(230,134)"/>
<path d="M0 0 C1.65 0 3.3 0 5 0 C5 1.32 5 2.64 5 4 C5.66 4 6.32 4 7 4 C7.67286212 6.41509441 8.33846012 8.83180356 9 11.25 C9.19078125 11.93191406 9.3815625 12.61382812 9.578125 13.31640625 C10.49957044 16.70600912 11 19.45778976 11 23 C9.68 23 8.36 23 7 23 C6.67 21.35 6.34 19.7 6 18 C4.02 18.33 2.04 18.66 0 19 C-0.33 20.32 -0.66 21.64 -1 23 C-2.65 23 -4.3 23 -6 23 C-5.30331252 18.32638819 -4.23505638 13.80538913 -3 9.25 C-2.82210938 8.57839844 -2.64421875 7.90679687 -2.4609375 7.21484375 C-1.1308171 2.2616342 -1.1308171 2.2616342 0 0 Z " fill="#536372" transform="translate(308,135)"/>
<path d="M0 0 C1.65 0 3.3 0 5 0 C11 15.84466019 11 15.84466019 11 23 C9.68 23 8.36 23 7 23 C6.67 21.35 6.34 19.7 6 18 C4.02 18 2.04 18 0 18 C-0.33 19.65 -0.66 21.3 -1 23 C-2.65 23 -4.3 23 -6 23 C-5.37851697 20.29081668 -4.75293439 17.58268873 -4.125 14.875 C-3.95097656 14.11445313 -3.77695313 13.35390625 -3.59765625 12.5703125 C-2.60201572 8.29274576 -1.47028611 4.14594191 0 0 Z " fill="#3E4F5E" transform="translate(130,135)"/>
<path d="M0 0 C2.375 1.5 2.375 1.5 4 3 C3.67 4.32 3.34 5.64 3 7 C0.33333333 6.33333333 -2.33333333 5.66666667 -5 5 C-4.2906178 8.26570231 -4.2906178 8.26570231 -1.125 9.5625 C0.421875 10.2740625 0.421875 10.2740625 2 11 C2.99 11.66 3.98 12.32 5 13 C5.39223133 16.53008193 5.34245431 19.1096188 4.0625 22.4375 C1.12949973 24.6594699 -1.34660438 24.39496545 -4.94140625 24.3359375 C-7 24 -7 24 -9 22 C-8.625 19.375 -8.625 19.375 -8 17 C-7.01 17 -6.02 17 -5 17 C-5 17.66 -5 18.32 -5 19 C-3.35 19 -1.7 19 0 19 C0 18.01 0 17.02 0 16 C-0.9075 15.773125 -1.815 15.54625 -2.75 15.3125 C-6.53400112 13.7843457 -7.90228162 12.46930347 -10 9 C-10.5 6.4375 -10.5 6.4375 -10 4 C-7.15185518 -0.05312917 -4.84199177 -0.7061238 0 0 Z " fill="#3B4D5C" transform="translate(59,134)"/>
<path d="M0 0 C4.29 0 8.58 0 13 0 C13 1.65 13 3.3 13 5 C10.03 5 7.06 5 4 5 C4 6.65 4 8.3 4 10 C6.31 10 8.62 10 11 10 C11 11.65 11 13.3 11 15 C9.02 15 7.04 15 5 15 C5 16.32 5 17.64 5 19 C7.31 19 9.62 19 12 19 C12.33 20.65 12.66 22.3 13 24 C8.71 24 4.42 24 0 24 C0 16.08 0 8.16 0 0 Z " fill="#6B7A87" transform="translate(178,134)"/>
<path d="M0 0 C1.98 0 3.96 0 6 0 C6.84145956 3.08117427 7.67173062 6.16525621 8.5 9.25 C8.73847656 10.12269531 8.97695313 10.99539062 9.22265625 11.89453125 C9.44824219 12.73886719 9.67382812 13.58320313 9.90625 14.453125 C10.11572266 15.22817383 10.32519531 16.00322266 10.54101562 16.80175781 C11 19 11 19 11 23 C9.68 23 8.36 23 7 23 C6.67 21.35 6.34 19.7 6 18 C4.02 18 2.04 18 0 18 C-0.33 19.65 -0.66 21.3 -1 23 C-2.32 23 -3.64 23 -5 23 C-4.63379732 14.88861071 -2.58459767 7.66964333 0 0 Z " fill="#435465" transform="translate(456,135)"/>
<path d="M0 0 C0.76441406 -0.00773438 1.52882813 -0.01546875 2.31640625 -0.0234375 C4.94570626 0.47046416 5.84563254 1.25418924 7.4375 3.375 C7.625 6.0625 7.625 6.0625 7.4375 8.375 C5 8 5 8 2.4375 7.375 C2.1075 6.715 1.7775 6.055 1.4375 5.375 C0.1175 5.375 -1.2025 5.375 -2.5625 5.375 C-2.5625 9.665 -2.5625 13.955 -2.5625 18.375 C-0.9125 18.045 0.7375 17.715 2.4375 17.375 C2.7675 16.385 3.0975 15.395 3.4375 14.375 C4.7575 14.375 6.0775 14.375 7.4375 14.375 C6.8515625 20.52734375 6.8515625 20.52734375 6.4375 22.375 C4.00270995 23.59239502 2.21670476 23.64627853 -0.5 23.75 C-1.81291016 23.82347656 -1.81291016 23.82347656 -3.15234375 23.8984375 C-5.5625 23.375 -5.5625 23.375 -7.3515625 21.328125 C-8.85886625 17.65224876 -8.99608714 14.71763552 -9 10.75 C-9.01933594 9.43773437 -9.03867188 8.12546875 -9.05859375 6.7734375 C-8.5625 3.375 -8.5625 3.375 -6.8203125 1.4375 C-4.34806139 0.27408771 -2.72178885 -0.02763237 0 0 Z " fill="#3E4F5E" transform="translate(100.5625,134.625)"/>
<path d="M0 0 C5.28 0 10.56 0 16 0 C16 0.66 16 1.32 16 2 C13.36 2 10.72 2 8 2 C8 2.66 8 3.32 8 4 C10.64 4 13.28 4 16 4 C16 5.32 16 6.64 16 8 C11.38 8 6.76 8 2 8 C2 16.58 2 25.16 2 34 C4.64 34 7.28 34 10 34 C10 34.66 10 35.32 10 36 C6.7 36 3.4 36 0 36 C0 35.34 0 34.68 0 34 C-0.66 34 -1.32 34 -2 34 C-2 31.36 -2 28.72 -2 26 C-1.34 26 -0.68 26 0 26 C0 25.34 0 24.68 0 24 C-0.66 24 -1.32 24 -2 24 C-2 22.02 -2 20.04 -2 18 C-1.34 18 -0.68 18 0 18 C0 16.68 0 15.36 0 14 C-0.66 14 -1.32 14 -2 14 C-2 11.36 -2 8.72 -2 6 C-1.34 6 -0.68 6 0 6 C0 5.34 0 4.68 0 4 C1.98 4 3.96 4 6 4 C6 3.34 6 2.68 6 2 C4.02 2 2.04 2 0 2 C0 1.34 0 0.68 0 0 Z " fill="#F6F7F6" transform="translate(176,126)"/>
<path d="M0 0 C1.258125 -0.020625 2.51625 -0.04125 3.8125 -0.0625 C4.52019531 -0.07410156 5.22789063 -0.08570313 5.95703125 -0.09765625 C8 0 8 0 11 1 C12.63620545 4.27241091 12.26799747 7.84466263 12.3125 11.4375 C12.34150391 12.21416016 12.37050781 12.99082031 12.40039062 13.79101562 C12.46388924 19.46193027 12.46388924 19.46193027 10.265625 22.01171875 C7.80475726 23.08516623 6.11504645 23.40218321 3.4375 23.375 C2.67308594 23.38273437 1.90867187 23.39046875 1.12109375 23.3984375 C-1 23 -1 23 -2.765625 21.92578125 C-4.67711126 18.94362073 -4.28352612 16.30144907 -4.1875 12.8125 C-4.16042969 11.54019531 -4.13335937 10.26789063 -4.10546875 8.95703125 C-4.07066406 7.98121094 -4.03585938 7.00539062 -4 6 C-3.67 6 -3.34 6 -3 6 C-2.93941406 6.85464844 -2.87882812 7.70929688 -2.81640625 8.58984375 C-2.73261719 9.69457031 -2.64882812 10.79929688 -2.5625 11.9375 C-2.48128906 13.03964844 -2.40007812 14.14179688 -2.31640625 15.27734375 C-2.29581916 17.91109903 -2.29581916 17.91109903 -1 19 C-1.33 18.01 -1.66 17.02 -2 16 C-2.0685495 14.10529184 -2.08480372 12.2083166 -2.0625 10.3125 C-2.05347656 9.31863281 -2.04445313 8.32476562 -2.03515625 7.30078125 C-2.02355469 6.54152344 -2.01195313 5.78226563 -2 5 C-0.68 4.34 0.64 3.68 2 3 C2 7.95 2 12.9 2 18 C3.32 18 4.64 18 6 18 C6.02693575 15.87506859 6.04636628 13.75004088 6.0625 11.625 C6.07410156 10.44164062 6.08570312 9.25828125 6.09765625 8.0390625 C6.21466593 5.08078479 6.21466593 5.08078479 5 3 C5.33 2.34 5.66 1.68 6 1 C4.02 1 2.04 1 0 1 C0 0.67 0 0.34 0 0 Z " fill="#425364" transform="translate(74,135)"/>
<path d="M0 0 C1.18335937 0.08701172 1.18335937 0.08701172 2.390625 0.17578125 C3.18984375 0.22089844 3.9890625 0.26601562 4.8125 0.3125 C5.41578125 0.37050781 6.0190625 0.42851562 6.640625 0.48828125 C6.29 1.10703125 5.939375 1.72578125 5.578125 2.36328125 C5.26875 3.06453125 4.959375 3.76578125 4.640625 4.48828125 C4.970625 5.14828125 5.300625 5.80828125 5.640625 6.48828125 C5.71155342 8.69557355 5.72477525 10.90495577 5.703125 13.11328125 C5.69410156 14.30179688 5.68507813 15.4903125 5.67578125 16.71484375 C5.66417969 17.63007813 5.65257813 18.5453125 5.640625 19.48828125 C3.98447843 19.87046892 2.31605476 20.20223227 0.640625 20.48828125 C-0.359375 19.48828125 -0.359375 19.48828125 -0.45703125 16.328125 C-0.43962891 14.39646484 -0.43962891 14.39646484 -0.421875 12.42578125 C-0.41285156 11.13542969 -0.40382813 9.84507812 -0.39453125 8.515625 C-0.38292969 7.51660156 -0.37132813 6.51757812 -0.359375 5.48828125 C-1.349375 5.98328125 -1.349375 5.98328125 -2.359375 6.48828125 C-2.38643229 8.25903042 -2.40579695 10.02989836 -2.421875 11.80078125 C-2.43347656 12.78691406 -2.44507812 13.77304688 -2.45703125 14.7890625 C-2.32992291 18.302337 -1.86537814 19.98227811 0.640625 22.48828125 C-1.296875 22.11328125 -1.296875 22.11328125 -3.359375 21.48828125 C-3.689375 20.82828125 -4.019375 20.16828125 -4.359375 19.48828125 C-5.019375 19.81828125 -5.679375 20.14828125 -6.359375 20.48828125 C-6.46792117 18.09122002 -6.54690657 15.69912287 -6.609375 13.30078125 C-6.64289063 12.62724609 -6.67640625 11.95371094 -6.7109375 11.25976562 C-6.78036081 7.70182124 -6.43462608 5.61826039 -4.640625 2.51953125 C-2.359375 0.48828125 -2.359375 0.48828125 0 0 Z " fill="#697885" transform="translate(75.359375,133.51171875)"/>
<path d="M0 0 C5.28 0 10.56 0 16 0 C16 1.32 16 2.64 16 4 C14.02 4 12.04 4 10 4 C10 10.27 10 16.54 10 23 C8.35 23 6.7 23 5 23 C5 16.73 5 10.46 5 4 C3.35 4 1.7 4 0 4 C0 2.68 0 1.36 0 0 Z " fill="#384B5D" transform="translate(345,135)"/>
<path d="M0 0 C1.32 0 2.64 0 4 0 C5.75 2 5.75 2 7 4 C7.66 2.68 8.32 1.36 9 0 C10.65 0 12.3 0 14 0 C12.17232376 5.61357702 12.17232376 5.61357702 10.96875 8.3125 C9.86469235 11.37536961 9.58886743 14.06884404 9.375 17.3125 C9.30023438 18.38113281 9.22546875 19.44976562 9.1484375 20.55078125 C9.09945313 21.35902344 9.05046875 22.16726562 9 23 C7.35 23 5.7 23 4 23 C3.96261719 22.14277344 3.92523438 21.28554687 3.88671875 20.40234375 C3.51153006 13.87700312 2.91959428 8.83918856 0 3 C0 2.01 0 1.02 0 0 Z " fill="#3D4E5C" transform="translate(271,135)"/>
<path d="M0 0 C5.28 0 10.56 0 16 0 C16 1.65 16 3.3 16 5 C14.02 5 12.04 5 10 5 C10 11.27 10 17.54 10 24 C8.68 24 7.36 24 6 24 C6 17.73 6 11.46 6 5 C4.02 5 2.04 5 0 5 C0 3.35 0 1.7 0 0 Z " fill="#4C5B6B" transform="translate(251,134)"/>
<path d="M0 0 C1.65 0 3.3 0 5 0 C5 6.27 5 12.54 5 19 C7.31 19 9.62 19 12 19 C12 20.32 12 21.64 12 23 C8.04 23 4.08 23 0 23 C0 15.41 0 7.82 0 0 Z " fill="#3C4F5F" transform="translate(434,135)"/>
<path d="M0 0 C0.66 0 1.32 0 2 0 C1.96519531 1.12019531 1.93039062 2.24039063 1.89453125 3.39453125 C1.86639161 4.86717251 1.83909163 6.33982998 1.8125 7.8125 C1.78736328 8.55048828 1.76222656 9.28847656 1.73632812 10.04882812 C1.61931563 14.32017538 1.61931563 14.32017538 3.51171875 18.01171875 C4.00285156 18.33785156 4.49398438 18.66398437 5 19 C4.51144531 18.45472656 4.02289063 17.90945312 3.51953125 17.34765625 C1.66604934 14.48405052 1.627687 12.81923483 1.6875 9.4375 C1.69136719 8.48746094 1.69523437 7.53742188 1.69921875 6.55859375 C2 4 2 4 4 1 C4.66 1.33 5.32 1.66 6 2 C5.67 2.33 5.34 2.66 5 3 C4.92755947 5.01964199 4.91622812 7.04167124 4.9375 9.0625 C4.94652344 10.16722656 4.95554687 11.27195313 4.96484375 12.41015625 C4.97644531 13.26480469 4.98804688 14.11945313 5 15 C6.65 15.33 8.3 15.66 10 16 C10.33 12.04 10.66 8.08 11 4 C11.66 4 12.32 4 13 4 C13.06058594 4.74765625 13.12117188 5.4953125 13.18359375 6.265625 C13.26738281 7.25046875 13.35117187 8.2353125 13.4375 9.25 C13.51871094 10.22453125 13.59992188 11.1990625 13.68359375 12.203125 C13.95074584 14.56461753 14.35371968 16.71901065 15 19 C11.8233834 21.1177444 10.69228613 21.34409395 7 21.4375 C6.13375 21.47746094 5.2675 21.51742187 4.375 21.55859375 C2 21 2 21 0.203125 18.921875 C-1.26281845 15.36172662 -1.33094164 12.65318105 -1.25 8.8125 C-1.23453125 7.58144531 -1.2190625 6.35039062 -1.203125 5.08203125 C-1 2 -1 2 0 0 Z " fill="#3B4C5C" transform="translate(377,137)"/>
<path d="M0 0 C2 2 2 2 2.22705078 4.52197266 C2.21657715 5.5588623 2.20610352 6.59575195 2.1953125 7.6640625 C2.18886719 8.78554687 2.18242187 9.90703125 2.17578125 11.0625 C2.15902344 12.238125 2.14226562 13.41375 2.125 14.625 C2.11597656 15.80835938 2.10695313 16.99171875 2.09765625 18.2109375 C2.07402812 21.14082523 2.04108514 24.0703134 2 27 C4.12534659 26.85930804 6.25027529 26.71229079 8.375 26.5625 C10.15003906 26.44068359 10.15003906 26.44068359 11.9609375 26.31640625 C14.91518901 26.18915064 14.91518901 26.18915064 17 25 C17 25.66 17 26.32 17 27 C17.66 27.33 18.32 27.66 19 28 C18.67 28.66 18.34 29.32 18 30 C15.36 30 12.72 30 10 30 C10 29.34 10 28.68 10 28 C9.34 28 8.68 28 8 28 C8 28.66 8 29.32 8 30 C6.68 30 5.36 30 4 30 C4 29.34 4 28.68 4 28 C2.68 28 1.36 28 0 28 C0 28.66 0 29.32 0 30 C-0.66 30 -1.32 30 -2 30 C-2 24.06 -2 18.12 -2 12 C-1.34 12 -0.68 12 0 12 C0 9.36 0 6.72 0 4 C-0.66 4 -1.32 4 -2 4 C-2 3.34 -2 2.68 -2 2 C-1.34 2 -0.68 2 0 2 C0 1.34 0 0.68 0 0 Z " fill="#F2F5F7" transform="translate(432,132)"/>
<path d="M0 0 C3.63 0 7.26 0 11 0 C13.93447357 2.93447357 13.46158423 6.18259456 13.625 10.125 C13.66367187 10.87910156 13.70234375 11.63320312 13.7421875 12.41015625 C13.83651031 14.27303184 13.91934662 16.13648255 14 18 C13.34 18.33 12.68 18.66 12 19 C11.8046875 16.98177083 11.609375 14.96354167 11.4140625 12.9453125 C11.13625251 10.77331755 11.13625251 10.77331755 9 9 C6.93125966 8.3574765 6.93125966 8.3574765 5 8 C5.66 7.67 6.32 7.34 7 7 C7.33 6.01 7.66 5.02 8 4 C6.68 4 5.36 4 4 4 C4 5.65 4 7.3 4 9 C3.34 9 2.68 9 2 9 C2.020625 8.030625 2.04125 7.06125 2.0625 6.0625 C2.35618499 3.12534105 2.35618499 3.12534105 1 2 C1.33 8.27 1.66 14.54 2 21 C5.3 20.67 8.6 20.34 12 20 C11.67 20.99 11.34 21.98 11 23 C7.37 23 3.74 23 0 23 C0 15.41 0 7.82 0 0 Z " fill="#3D4C5A" transform="translate(473,135)"/>
<path d="M0 0 C0.33 0 0.66 0 1 0 C1.165 1.051875 1.33 2.10375 1.5 3.1875 C2.47065568 6.77313105 3.94756077 7.91427097 7.125 9.75 C7.84945312 10.11609375 8.57390625 10.4821875 9.3203125 10.859375 C10.15175781 11.42398438 10.15175781 11.42398438 11 12 C11 12.99 11 13.98 11 15 C9.35 15 7.7 15 6 15 C6 14.34 6 13.68 6 13 C5.01 13 4.02 13 3 13 C2.58129447 15.33071879 2.58129447 15.33071879 3 18 C5.4390706 20.20142332 5.4390706 20.20142332 8 22 C8 22.66 8 23.32 8 24 C4.7 24 1.4 24 -2 24 C-2 23.34 -2 22.68 -2 22 C-1.34 22 -0.68 22 0 22 C0 21.34 0 20.68 0 20 C-0.66 20 -1.32 20 -2 20 C-2 19.34 -2 18.68 -2 18 C-1.34 18 -0.68 18 0 18 C0 17.34 0 16.68 0 16 C-0.66 16 -1.32 16 -2 16 C-2 13.36 -2 10.72 -2 8 C-1.34 8 -0.68 8 0 8 C0 5.36 0 2.72 0 0 Z " fill="#ECF0F2" transform="translate(48,138)"/>
<path d="M0 0 C1.65 0 3.3 0 5 0 C5 8.25 5 16.5 5 25 C3.35 25 1.7 25 0 25 C0 16.75 0 8.5 0 0 Z " fill="#576776" transform="translate(114,134)"/>
<path d="M0 0 C1.32 0 2.64 0 4 0 C4 6.27 4 12.54 4 19 C6.64 19 9.28 19 12 19 C12 20.32 12 21.64 12 23 C8.04 23 4.08 23 0 23 C0 15.41 0 7.82 0 0 Z " fill="#334556" transform="translate(147,135)"/>
<path d="M0 0 C1.32 0 2.64 0 4 0 C4 8.58 4 17.16 4 26 C3.34 26 2.68 26 2 26 C2 26.66 2 27.32 2 28 C1.34 28 0.68 28 0 28 C0 27.34 0 26.68 0 26 C-0.66 26 -1.32 26 -2 26 C-2 26.66 -2 27.32 -2 28 C-3.32 28 -4.64 28 -6 28 C-6 27.34 -6 26.68 -6 26 C-4.02 25.67 -2.04 25.34 0 25 C0 16.75 0 8.5 0 0 Z " fill="#FCFDFD" transform="translate(414,134)"/>
<path d="M0 0 C-0.33 0.66 -0.66 1.32 -1 2 C-3.54941373 2.31241371 -6.00361513 2.51303421 -8.5625 2.625 C-9.62887695 2.68300781 -9.62887695 2.68300781 -10.71679688 2.7421875 C-12.47742425 2.83671783 -14.23867728 2.91945817 -16 3 C-15.67 2.01 -15.34 1.02 -15 0 C-34.8 -0.495 -34.8 -0.495 -55 -1 C-54.67 -1.66 -54.34 -2.32 -54 -3 C-52.824375 -2.979375 -51.64875 -2.95875 -50.4375 -2.9375 C-47.74027812 -2.89018032 -45.34068967 -3.10255938 -42.66015625 -3.51953125 C-28.78662859 -5.34070937 -13.73454408 -1.91900898 0 0 Z " fill="#E3FAF9" transform="translate(279,105)"/>
<path d="M0 0 C1.65 0 3.3 0 5 0 C5 7.59 5 15.18 5 23 C3.35 23 1.7 23 0 23 C0 15.41 0 7.82 0 0 Z " fill="#4C5D6C" transform="translate(241,135)"/>
<path d="M0 0 C4.62 0 9.24 0 14 0 C14 0.99 14 1.98 14 3 C13.34 3 12.68 3 12 3 C12 3.66 12 4.32 12 5 C10.75336669 5.50833591 9.50250613 6.00631145 8.25 6.5 C7.55390625 6.7784375 6.8578125 7.056875 6.140625 7.34375 C4 8 4 8 0 8 C0 8.66 0 9.32 0 10 C-2.31 10 -4.62 10 -7 10 C-6.67 9.01 -6.34 8.02 -6 7 C-4.02 7.495 -4.02 7.495 -2 8 C-2.33 6.02 -2.66 4.04 -3 2 C-2.01 2 -1.02 2 0 2 C0 1.34 0 0.68 0 0 Z " fill="#F6FDFC" transform="translate(224,94)"/>
<path d="M0 0 C0.66 0 1.32 0 2 0 C2.33 2.31 2.66 4.62 3 7 C0.36 7 -2.28 7 -5 7 C-5 8.32 -5 9.64 -5 11 C-2.36 11 0.28 11 3 11 C2.67 12.98 2.34 14.96 2 17 C1.67 17 1.34 17 1 17 C1 15.35 1 13.7 1 12 C-0.32 12 -1.64 12 -3 12 C-3.33 13.32 -3.66 14.64 -4 16 C-5.65614657 16.38218767 -7.32457024 16.71395102 -9 17 C-10 16 -10 16 -10.09765625 13.05859375 C-10.08605469 11.86363281 -10.07445313 10.66867188 -10.0625 9.4375 C-10.05347656 8.23996094 -10.04445313 7.04242188 -10.03515625 5.80859375 C-10.02355469 4.88175781 -10.01195313 3.95492187 -10 3 C-8.35 2.67 -6.7 2.34 -5 2 C-4.01 3.485 -4.01 3.485 -3 5 C-0.94074861 5.72382467 -0.94074861 5.72382467 1 6 C0.67 4.02 0.34 2.04 0 0 Z M-9 9 C-9 9.66 -9 10.32 -9 11 C-8.34 11 -7.68 11 -7 11 C-7 10.34 -7 9.68 -7 9 C-7.66 9 -8.32 9 -9 9 Z " fill="#E4E8EC" transform="translate(107,137)"/>
<path d="M0 0 C5.28 0 10.56 0 16 0 C16 1.32 16 2.64 16 4 C14.02 4 12.04 4 10 4 C9.67 4.99 9.34 5.98 9 7 C7.1875 7.66015625 7.1875 7.66015625 5 8.0625 C2.85944703 8.42700873 2.85944703 8.42700873 1 9 C0.67 9.66 0.34 10.32 0 11 C-0.66 11 -1.32 11 -2 11 C-2 9.35 -2 7.7 -2 6 C-1.34 6 -0.68 6 0 6 C0 4.02 0 2.04 0 0 Z " fill="#FEFEFD" transform="translate(472,126)"/>
<path d="M0 0 C0.99 0.99 1.98 1.98 3 3 C6.62535976 3.2503577 6.62535976 3.2503577 10 3 C10 3.33 10 3.66 10 4 C8.35 4 6.7 4 5 4 C5 5.65 5 7.3 5 9 C7.31 9 9.62 9 12 9 C12.33 10.65 12.66 12.3 13 14 C8.71 14 4.42 14 0 14 C0 9.38 0 4.76 0 0 Z " fill="#566572" transform="translate(178,144)"/>
<path d="M0 0 C1.98 0 3.96 0 6 0 C6.33 1.65 6.66 3.3 7 5 C8.65 4.67 10.3 4.34 12 4 C12 4.99 12 5.98 12 7 C11.34 7 10.68 7 10 7 C10 7.66 10 8.32 10 9 C9.34 9 8.68 9 8 9 C8 8.34 8 7.68 8 7 C7.34 7 6.68 7 6 7 C6 7.66 6 8.32 6 9 C3.36 9 0.72 9 -2 9 C-2 8.34 -2 7.68 -2 7 C-2.66 7 -3.32 7 -4 7 C-4 7.66 -4 8.32 -4 9 C-4.66 9 -5.32 9 -6 9 C-6 7.68 -6 6.36 -6 5 C-4.35 5 -2.7 5 -1 5 C-0.67 3.35 -0.34 1.7 0 0 Z M0 5 C1 7 1 7 1 7 Z " fill="#E8EBED" transform="translate(308,153)"/>
<path d="M0 0 C2.31 0 4.62 0 7 0 C7 4.29 7 8.58 7 13 C5.35 13.33 3.7 13.66 2 14 C0 12 0 12 -0.1953125 9.1796875 C-0.17210937 8.08914062 -0.14890625 6.99859375 -0.125 5.875 C-0.10695313 4.77929688 -0.08890625 3.68359375 -0.0703125 2.5546875 C-0.04710937 1.71164063 -0.02390625 0.86859375 0 0 Z " fill="#E9EBEF" transform="translate(381,140)"/>
<path d="M0 0 C0 0.33 0 0.66 0 1 C-1.65 1.33 -3.3 1.66 -5 2 C-5 2.66 -5 3.32 -5 4 C-5.99 4.66 -6.98 5.32 -8 6 C-8.22107787 8.7885289 -8.28107535 11.34653181 -8.1875 14.125 C-8.17396484 14.87910156 -8.16042969 15.63320312 -8.14648438 16.41015625 C-8.11109985 18.27374127 -8.05729167 20.13695978 -8 22 C-7.34 22 -6.68 22 -6 22 C-6 22.66 -6 23.32 -6 24 C-4.02 24 -2.04 24 0 24 C0 24.33 0 24.66 0 25 C-4.17707483 25.40951714 -6.27619286 25.53971746 -9.703125 22.984375 C-12.55988857 19.27252574 -12.71506663 16.43615383 -12.5625 11.9375 C-12.57345703 11.23044922 -12.58441406 10.52339844 -12.59570312 9.79492188 C-12.5475368 6.37511257 -12.23246676 4.32586401 -10.23046875 1.51953125 C-6.68140312 -0.89830856 -4.20480501 -0.28032033 0 0 Z " fill="#3E5267" transform="translate(336,134)"/>
<path d="M0 0 C1.32 0 2.64 0 4 0 C4 7.59 4 15.18 4 23 C2.68 23 1.36 23 0 23 C0 15.41 0 7.82 0 0 Z " fill="#404E5E" transform="translate(366,135)"/>
<path d="M0 0 C4.70588235 0.70588235 4.70588235 0.70588235 6 2 C6.12487758 3.80927281 6.17570846 5.62396107 6.1875 7.4375 C6.20167969 8.42621094 6.21585938 9.41492188 6.23046875 10.43359375 C6 13 6 13 4 15 C1.375 14.625 1.375 14.625 -1 14 C-1.02685938 11.85423363 -1.04633088 9.70837355 -1.0625 7.5625 C-1.07410156 6.36753906 -1.08570313 5.17257813 -1.09765625 3.94140625 C-1 1 -1 1 0 0 Z M3 5 C2.67 6.98 2.34 8.96 2 11 C2.99 11.495 2.99 11.495 4 12 C4 9.69 4 7.38 4 5 C3.67 5 3.34 5 3 5 Z " fill="#DFE5E8" transform="translate(202,139)"/>
<path d="M0 0 C4.95 0.99 4.95 0.99 10 2 C9.8125 4.8125 9.8125 4.8125 9 8 C6.59196729 9.85233285 5.07258075 11 2 11 C2 16.61 2 22.22 2 28 C1.34 28 0.68 28 0 28 C0 22.06 0 16.12 0 10 C0.66 10 1.32 10 2 10 C2 9.34 2 8.68 2 8 C2.66 8 3.32 8 4 8 C4 6.68 4 5.36 4 4 C2.68 4 1.36 4 0 4 C0 2.68 0 1.36 0 0 Z " fill="#5AD0CB" transform="translate(304,58)"/>
<path d="M0 0 C1.98 0 3.96 0 6 0 C6 4.29 6 8.58 6 13 C4.35 13.33 2.7 13.66 1 14 C0 13 0 13 -0.09765625 10.05859375 C-0.08605469 8.86363281 -0.07445313 7.66867188 -0.0625 6.4375 C-0.05347656 5.23996094 -0.04445313 4.04242188 -0.03515625 2.80859375 C-0.02355469 1.88175781 -0.01195313 0.95492187 0 0 Z " fill="#EDF3F4" transform="translate(75,140)"/>
<path d="M0 0 C0.33 1.32 0.66 2.64 1 4 C-0.98 4 -2.96 4 -5 4 C-5 10.27 -5 16.54 -5 23 C-5.33 22.34 -5.66 21.68 -6 21 C-6.66 21 -7.32 21 -8 21 C-8 15.06 -8 9.12 -8 3 C-9.65 3 -11.3 3 -13 3 C-13 2.67 -13 2.34 -13 2 C-11.39592672 1.97291433 -9.7917215 1.95356517 -8.1875 1.9375 C-7.29417969 1.92589844 -6.40085937 1.91429687 -5.48046875 1.90234375 C-3 2 -3 2 0 3 C0 2.01 0 1.02 0 0 Z " fill="#4E5B6B" transform="translate(360,135)"/>
<path d="M0 0 C2.64 0 5.28 0 8 0 C8 1.32 8 2.64 8 4 C8.66 4 9.32 4 10 4 C10 5.32 10 6.64 10 8 C9.34 8 8.68 8 8 8 C8 8.66 8 9.32 8 10 C8.66 10 9.32 10 10 10 C10.12375 10.61875 10.2475 11.2375 10.375 11.875 C10.87197356 14.19120832 10.87197356 14.19120832 13 16 C12.01 16 11.02 16 10 16 C9.67 17.32 9.34 18.64 9 20 C7.68 15.05 6.36 10.1 5 5 C3.35 4.67 1.7 4.34 0 4 C0 2.68 0 1.36 0 0 Z " fill="#F9FAFB" transform="translate(456,130)"/>
<path d="M0 0 C1.32 0 2.64 0 4 0 C4 7.59 4 15.18 4 23 C2.35 23 0.7 23 -1 23 C-1.99 20.03 -2.98 17.06 -4 14 C-3.34 14 -2.68 14 -2 14 C-2 15.32 -2 16.64 -2 18 C-1.34 18 -0.68 18 0 18 C0.33 18.66 0.66 19.32 1 20 C1.495 11.09 1.495 11.09 2 2 C1.34 2 0.68 2 0 2 C0 1.34 0 0.68 0 0 Z " fill="#304356" transform="translate(410,135)"/>
<path d="M0 0 C1.65 0 3.3 0 5 0 C5 1.32 5 2.64 5 4 C5.66 4 6.32 4 7 4 C8.1577506 7.47325181 8.06866652 10.36067448 8 14 C5.29120665 15.35439668 2.99066732 15.06501451 0 15 C0.33 14.01 0.66 13.02 1 12 C1 12.66 1 13.32 1 14 C1.99 14 2.98 14 4 14 C4 12.68 4 11.36 4 10 C3.34 10 2.68 10 2 10 C1.79913557 6.28400809 1.8480563 5.22791555 4 2 C3.01 2 2.02 2 1 2 C0.67 2.66 0.34 3.32 0 4 C0 2.68 0 1.36 0 0 Z " fill="#495967" transform="translate(308,135)"/>
<path d="M0 0 C0.66 0.33 1.32 0.66 2 1 C2 5.62 2 10.24 2 15 C4.31 15.33 6.62 15.66 9 16 C9 16.66 9 17.32 9 18 C6.69 18.33 4.38 18.66 2 19 C2 18.34 2 17.68 2 17 C1.01 16.67 0.02 16.34 -1 16 C-2.02766017 12.91701949 -2.16598738 10.66869574 -2.1875 7.4375 C-2.20167969 6.46683594 -2.21585937 5.49617187 -2.23046875 4.49609375 C-2 2 -2 2 0 0 Z " fill="#465868" transform="translate(74,138)"/>
<path d="M0 0 C1.98 0 3.96 0 6 0 C6 8.25 6 16.5 6 25 C5.34 25 4.68 25 4 25 C4.01160156 24.31035156 4.02320313 23.62070313 4.03515625 22.91015625 C4.09339241 16.84527604 3.87183583 11.00598017 3 5 C1.26043342 3.26043342 -1.1936622 3.62809614 -3.5625 3.4375 C-4.57441406 3.35371094 -5.58632813 3.26992187 -6.62890625 3.18359375 C-7.80259766 3.09271484 -7.80259766 3.09271484 -9 3 C-9 2.67 -9 2.34 -9 2 C-6.03 2 -3.06 2 0 2 C0 1.34 0 0.68 0 0 Z " fill="#DBE1E5" transform="translate(482,132)"/>
<path d="M0 0 C0 1.32 0 2.64 0 4 C1.32 3.67 2.64 3.34 4 3 C4 4.32 4 5.64 4 7 C2.68 7 1.36 7 0 7 C-0.33 5.35 -0.66 3.7 -1 2 C-2.98 2.33 -4.96 2.66 -7 3 C-7.33 4.32 -7.66 5.64 -8 7 C-9.65 7 -11.3 7 -13 7 C-12.67 5.02 -12.34 3.04 -12 1 C-8.0186217 -0.3271261 -4.14954773 -0.06915913 0 0 Z " fill="#324452" transform="translate(315,151)"/>
<path d="M0 0 C0.886875 -0.01675781 1.77375 -0.03351563 2.6875 -0.05078125 C3.8321875 0.12904297 3.8321875 0.12904297 5 0.3125 C5.66 1.3025 6.32 2.2925 7 3.3125 C7.66 3.3125 8.32 3.3125 9 3.3125 C9 4.6325 9 5.9525 9 7.3125 C7.68 7.3125 6.36 7.3125 5 7.3125 C4.67 5.6625 4.34 4.0125 4 2.3125 C2.02 2.3125 0.04 2.3125 -2 2.3125 C-2.33 3.9625 -2.66 5.6125 -3 7.3125 C-4.32 7.3125 -5.64 7.3125 -7 7.3125 C-7.125 4.9375 -7.125 4.9375 -7 2.3125 C-4.47982574 -0.20767426 -3.48500151 0.01519623 0 0 Z " fill="#30414F" transform="translate(458,150.6875)"/>
<path d="M0 0 C1.258125 -0.04125 2.51625 -0.0825 3.8125 -0.125 C4.52019531 -0.14820313 5.22789062 -0.17140625 5.95703125 -0.1953125 C8 0 8 0 11 2 C10.34 7.61 9.68 13.22 9 19 C8.67 19 8.34 19 8 19 C7.67 14.71 7.34 10.42 7 6 C4.525 5.01 4.525 5.01 2 4 C2 3.34 2 2.68 2 2 C1.34 1.34 0.68 0.68 0 0 Z " fill="#4A5969" transform="translate(201,135)"/>
<path d="M0 0 C0.33 0 0.66 0 1 0 C1.33 1.65 1.66 3.3 2 5 C2.66 4.01 3.32 3.02 4 2 C4.08097324 4.27024968 4.13917704 6.54132075 4.1875 8.8125 C4.22230469 10.07707031 4.25710937 11.34164062 4.29296875 12.64453125 C4 16 4 16 2.67578125 17.94921875 C1 19 1 19 -2 19 C-1.84660156 18.15179688 -1.69320312 17.30359375 -1.53515625 16.4296875 C-0.99843169 12.98994909 -0.68547896 9.59670538 -0.4375 6.125 C-0.35371094 4.97257813 -0.26992187 3.82015625 -0.18359375 2.6328125 C-0.12300781 1.76398438 -0.06242188 0.89515625 0 0 Z " fill="#2F4052" transform="translate(208,139)"/>
<path d="M0 0 C0.66 1.32 1.32 2.64 2 4 C3.98 4 5.96 4 8 4 C3.79875023 8.20124977 -4.42471499 7.05634521 -10.0625 7.0625 C-12.04171269 7.04663002 -14.02091515 7.02752977 -16 7 C-16 6.67 -16 6.34 -16 6 C-9.07 5.01 -9.07 5.01 -2 4 C-4.97 3.505 -4.97 3.505 -8 3 C-8 2.67 -8 2.34 -8 2 C-5.36 2 -2.72 2 0 2 C0 1.34 0 0.68 0 0 Z " fill="#76D2CE" transform="translate(280,102)"/>
<path d="M0 0 C1.65 0 3.3 0 5 0 C4.4140625 6.15234375 4.4140625 6.15234375 4 8 C1.04335481 9.4783226 -1.74229737 9.06032783 -5 9 C-5 8.34 -5 7.68 -5 7 C-5.66 6.67 -6.32 6.34 -7 6 C-5.35 6 -3.7 6 -2 6 C-1.34 4.02 -0.68 2.04 0 0 Z " fill="#425161" transform="translate(335,149)"/>
<path d="M0 0 C2.31 0 4.62 0 7 0 C5.68 0.33 4.36 0.66 3 1 C3 8.59 3 16.18 3 24 C2.34 24 1.68 24 1 24 C0.67 16.08 0.34 8.16 0 0 Z " fill="#BDC5CD" transform="translate(144,134)"/>
<path d="M0 0 C3.34905453 3.34905453 3.89470285 5.49378854 5 10 C6.65 10 8.3 10 10 10 C6.91190305 11.76462683 5.76687864 12 2 12 C2 12.66 2 13.32 2 14 C1.34 14 0.68 14 0 14 C0 9.38 0 4.76 0 0 Z " fill="#DDE0E4" transform="translate(404,148)"/>
<path d="M0 0 C1.98 0 3.96 0 6 0 C6 2.64 6 5.28 6 8 C5.34 8 4.68 8 4 8 C4 8.66 4 9.32 4 10 C3.34 10 2.68 10 2 10 C2 9.34 2 8.68 2 8 C1.34 8 0.68 8 0 8 C0 5.36 0 2.72 0 0 Z " fill="#FCFDFC" transform="translate(296,152)"/>
<path d="M0 0 C2.64 0 5.28 0 8 0 C8 1.32 8 2.64 8 4 C5.36 4 2.72 4 0 4 C0 2.68 0 1.36 0 0 Z M-2 4 C-1.34 4 -0.68 4 0 4 C0 6.64 0 9.28 0 12 C-0.99 12.495 -0.99 12.495 -2 13 C-2 12.34 -2 11.68 -2 11 C-2.66 10.67 -3.32 10.34 -4 10 C-3.34 10 -2.68 10 -2 10 C-2 8.02 -2 6.04 -2 4 Z " fill="#FDFEFE" transform="translate(128,130)"/>
<path d="M0 0 C2.31 0 4.62 0 7 0 C7 0.33 7 0.66 7 1 C5.02 1 3.04 1 1 1 C1 2.98 1 4.96 1 7 C1.66 7 2.32 7 3 7 C3 5.35 3 3.7 3 2 C4.32 2 5.64 2 7 2 C6.67 3.32 6.34 4.64 6 6 C6.99 6 7.98 6 9 6 C9 6.66 9 7.32 9 8 C6.36 8 3.72 8 1 8 C1 11.63 1 15.26 1 19 C0.67 19 0.34 19 0 19 C0 12.73 0 6.46 0 0 Z " fill="#6E808E" transform="translate(474,137)"/>
<path d="M0 0 C2.64 0 5.28 0 8 0 C8 6.93 8 13.86 8 21 C7.67 21 7.34 21 7 21 C7 15.39 7 9.78 7 4 C4.69 4 2.38 4 0 4 C0 2.68 0 1.36 0 0 Z " fill="#DADEE3" transform="translate(216,130)"/>
<path d="M0 0 C0.33 2.97 0.66 5.94 1 9 C3.64 9 6.28 9 9 9 C9 9.66 9 10.32 9 11 C5.7 11 2.4 11 -1 11 C-1 10.34 -1 9.68 -1 9 C-1.66 9 -2.32 9 -3 9 C-3 6.36 -3 3.72 -3 1 C-1 0 -1 0 0 0 Z " fill="#FDFDFE" transform="translate(177,151)"/>
<path d="M0 0 C3.63 0 7.26 0 11 0 C11 1.32 11 2.64 11 4 C8.36 4 5.72 4 3 4 C3.33 5.65 3.66 7.3 4 9 C5.65 9.33 7.3 9.66 9 10 C9 10.33 9 10.66 9 11 C6.69 11 4.38 11 2 11 C2 8.36 2 5.72 2 3 C1.34 2.67 0.68 2.34 0 2 C0 1.34 0 0.68 0 0 Z " fill="#313F4E" transform="translate(179,135)"/>
<path d="M0 0 C0.66 0 1.32 0 2 0 C2 0.66 2 1.32 2 2 C3.32 2 4.64 2 6 2 C6 1.34 6 0.68 6 0 C6.66 0 7.32 0 8 0 C8 1.32 8 2.64 8 4 C7.34 4 6.68 4 6 4 C6 4.66 6 5.32 6 6 C6.99 6.33 7.98 6.66 9 7 C6.69 7.33 4.38 7.66 2 8 C2 6.68 2 5.36 2 4 C0.68 4 -0.64 4 -2 4 C-2 3.34 -2 2.68 -2 2 C-1.34 2 -0.68 2 0 2 C0 1.34 0 0.68 0 0 Z " fill="#FDFEFD" transform="translate(432,126)"/>
<path d="M0 0 C3.003567 1.2014268 5.54786069 2.89816631 8 5 C8 5.66 8 6.32 8 7 C4.7 7 1.4 7 -2 7 C-2 6.34 -2 5.68 -2 5 C-1.34 5 -0.68 5 0 5 C0 4.34 0 3.68 0 3 C-0.66 3 -1.32 3 -2 3 C-2 2.34 -2 1.68 -2 1 C-1.34 0.67 -0.68 0.34 0 0 Z " fill="#F9FAF9" transform="translate(48,155)"/>
<path d="M0 0 C0.66 0 1.32 0 2 0 C2.03738281 0.84304687 2.07476562 1.68609375 2.11328125 2.5546875 C2.17902344 3.65039062 2.24476562 4.74609375 2.3125 5.875 C2.37050781 6.96554688 2.42851563 8.05609375 2.48828125 9.1796875 C2.74158203 10.57574219 2.74158203 10.57574219 3 12 C6.08888522 14.05925681 6.70935927 14.2390374 10.1875 14.125 C11.445625 14.08375 12.70375 14.0425 14 14 C13.67 14.66 13.34 15.32 13 16 C9.6207336 16.28530392 6.37324902 16.40196526 3 16 C0.875 14.1875 0.875 14.1875 0 11 C-0.21204566 7.31764619 -0.17415596 3.68307601 0 0 Z " fill="#2C404F" transform="translate(92,142)"/>
<path d="M0 0 C1.07894531 0.05994141 1.07894531 0.05994141 2.1796875 0.12109375 C7.48896504 0.48896504 7.48896504 0.48896504 9.75 2.75 C8.96496094 2.73839844 8.17992187 2.72679688 7.37109375 2.71484375 C1.69918249 2.66612795 -3.63557834 2.88624282 -9.25 3.75 C-11.92353824 3.83072851 -14.57433611 3.79694147 -17.25 3.75 C-11.48643148 -0.09237901 -6.67901681 -0.52600316 0 0 Z " fill="#6FD1CE" transform="translate(242.25,99.25)"/>
<path d="M0 0 C-0.33 1.32 -0.66 2.64 -1 4 C-3.31 4.33 -5.62 4.66 -8 5 C-7.65213292 6.97536745 -7.65213292 6.97536745 -7 9 C-6.34 9.33 -5.68 9.66 -5 10 C-5 10.66 -5 11.32 -5 12 C-6.32 11.67 -7.64 11.34 -9 11 C-9.75 7.75 -9.75 7.75 -10 4 C-7.29051062 -0.22680343 -4.81814183 -0.43801289 0 0 Z " fill="#394C5B" transform="translate(59,134)"/>
<path d="M0 0 C1.77503906 0.03480469 1.77503906 0.03480469 3.5859375 0.0703125 C5.36871094 0.09738281 5.36871094 0.09738281 7.1875 0.125 C8.10273437 0.14820313 9.01796875 0.17140625 9.9609375 0.1953125 C9.9609375 1.8453125 9.9609375 3.4953125 9.9609375 5.1953125 C9.3009375 4.8653125 8.6409375 4.5353125 7.9609375 4.1953125 C6.48425413 4.1000426 5.00318293 4.06545291 3.5234375 4.0703125 C2.74097656 4.06773437 1.95851563 4.06515625 1.15234375 4.0625 C-1.21801597 4.11148702 -1.21801597 4.11148702 -4.0390625 5.1953125 C-4.3690625 4.2053125 -4.6990625 3.2153125 -5.0390625 2.1953125 C-3.0390625 0.1953125 -3.0390625 0.1953125 0 0 Z " fill="#F1F1F1" transform="translate(97.0390625,131.8046875)"/>
<path d="M0 0 C0.66 0 1.32 0 2 0 C2 0.66 2 1.32 2 2 C5.3 2 8.6 2 12 2 C9.01495565 3.49252218 6.07006918 4.89114457 3 6.1875 C2.154375 6.55230469 1.30875 6.91710937 0.4375 7.29296875 C-2.19995359 8.05799936 -3.45517596 7.92485503 -6 7 C-4.68 6.67 -3.36 6.34 -2 6 C-2 5.34 -2 4.68 -2 4 C-1.34 4 -0.68 4 0 4 C0 2.68 0 1.36 0 0 Z " fill="#E5FAF6" transform="translate(264,82)"/>
<path d="M0 0 C0.99 0.495 0.99 0.495 2 1 C2.4140625 3.50390625 2.4140625 3.50390625 2.625 6.5625 C2.69976562 7.57441406 2.77453125 8.58632812 2.8515625 9.62890625 C2.92503906 10.80259766 2.92503906 10.80259766 3 12 C5.64 12.33 8.28 12.66 11 13 C11.33 12.34 11.66 11.68 12 11 C12 11.99 12 12.98 12 14 C8.04 14 4.08 14 0 14 C0 9.38 0 4.76 0 0 Z " fill="#394C5C" transform="translate(178,144)"/>
<path d="M0 0 C3.375 -0.125 3.375 -0.125 7 0 C7.66 0.66 8.32 1.32 9 2 C8.625 4.125 8.625 4.125 8 6 C5.33333333 5.33333333 2.66666667 4.66666667 0 4 C0 4.99 0 5.98 0 7 C-0.66 7 -1.32 7 -2 7 C-1.67 5.68 -1.34 4.36 -1 3 C0.65 3 2.3 3 4 3 C4 2.34 4 1.68 4 1 C2.68 0.67 1.36 0.34 0 0 Z " fill="#3B4B5A" transform="translate(54,135)"/>
<path d="M0 0 C4.95 0 9.9 0 15 0 C15 0.99 15 1.98 15 3 C11.7 3 8.4 3 5 3 C5 3.33 5 3.66 5 4 C3.35 4 1.7 4 0 4 C0 2.68 0 1.36 0 0 Z " fill="#364452" transform="translate(345,135)"/>
<path d="M0 0 C3.3 0 6.6 0 10 0 C10 1.32 10 2.64 10 4 C6.7 4 3.4 4 0 4 C0 2.68 0 1.36 0 0 Z " fill="#FFFEFD" transform="translate(200,126)"/>
<path d="M0 0 C2 2 2 2 2.125 4.625 C2.08375 5.40875 2.0425 6.1925 2 7 C-2.455 7.495 -2.455 7.495 -7 8 C-7.33 5.69 -7.66 3.38 -8 1 C-7.01 1.495 -7.01 1.495 -6 2 C-4.32345271 1.72057545 -2.65391846 1.39171753 -1 1 C-1 2.32 -1 3.64 -1 5 C-2.32 5.33 -3.64 5.66 -5 6 C-3.02 6 -1.04 6 1 6 C0.67 4.02 0.34 2.04 0 0 Z " fill="#728291" transform="translate(135,144)"/>
<path d="M0 0 C0.66 0 1.32 0 2 0 C3.83691257 3.78187881 4.15837626 5.94568308 3 10 C1.35 10 -0.3 10 -2 10 C-1.34 6.7 -0.68 3.4 0 0 Z " fill="#475663" transform="translate(126,148)"/>
<path d="M0 0 C0.66 0 1.32 0 2 0 C1.67 3.96 1.34 7.92 1 12 C0.34 12 -0.32 12 -1 12 C-1.33 12.66 -1.66 13.32 -2 14 C-2.05389087 12.04196493 -2.09274217 10.08351091 -2.125 8.125 C-2.14820313 7.03445312 -2.17140625 5.94390625 -2.1953125 4.8203125 C-2 2 -2 2 0 0 Z " fill="#636F7C" transform="translate(277,144)"/>
<path d="M0 0 C1 3 1 3 0 6 C-0.22325814 8.05893621 -0.40705759 10.12233653 -0.5625 12.1875 C-0.64628906 13.27417969 -0.73007812 14.36085937 -0.81640625 15.48046875 C-0.87699219 16.31191406 -0.93757813 17.14335937 -1 18 C-2.32 18 -3.64 18 -5 18 C-5 17.34 -5 16.68 -5 16 C-4.34 16 -3.68 16 -3 16 C-3.03480469 15.34773437 -3.06960938 14.69546875 -3.10546875 14.0234375 C-3.27610432 8.51434628 -3.0363889 4.80761576 0 0 Z " fill="#2B3F50" transform="translate(281,140)"/>
<path d="M0 0 C0.99 0 1.98 0 3 0 C3 0.66 3 1.32 3 2 C4.65 2 6.3 2 8 2 C7.01 2.66 6.02 3.32 5 4 C6.65 3.67 8.3 3.34 10 3 C10 3.66 10 4.32 10 5 C4.25 6.125 4.25 6.125 2 5 C1.67 5.66 1.34 6.32 1 7 C0.34 6.34 -0.32 5.68 -1 5 C-0.625 2.375 -0.625 2.375 0 0 Z " fill="#576776" transform="translate(51,151)"/>
<path d="M0 0 C0.66 0.66 1.32 1.32 2 2 C2.33 1.34 2.66 0.68 3 0 C3.66 0 4.32 0 5 0 C4.34 2.31 3.68 4.62 3 7 C3.66 7.33 4.32 7.66 5 8 C3.02 8.66 1.04 9.32 -1 10 C-0.67 6.7 -0.34 3.4 0 0 Z " fill="#4E5D6B" transform="translate(129,137)"/>
<path d="M0 0 C0.33 0.66 0.66 1.32 1 2 C1.99 2 2.98 2 4 2 C4 3.32 4 4.64 4 6 C4.66 6 5.32 6 6 6 C6 7.32 6 8.64 6 10 C1.38 10 -3.24 10 -8 10 C-7.67 9.34 -7.34 8.68 -7 8 C-3.04 8.33 0.92 8.66 5 9 C5 8.34 5 7.68 5 7 C3.68 6.67 2.36 6.34 1 6 C0.67 4.02 0.34 2.04 0 0 Z " fill="#B4F3F1" transform="translate(308,96)"/>
<path d="M0 0 C1.27875 -0.061875 2.5575 -0.12375 3.875 -0.1875 C4.95394531 -0.23970703 4.95394531 -0.23970703 6.0546875 -0.29296875 C6.69664062 -0.19628906 7.33859375 -0.09960938 8 0 C8.66 0.99 9.32 1.98 10 3 C10.66 3 11.32 3 12 3 C12 4.32 12 5.64 12 7 C10.68 7 9.36 7 8 7 C7.67 5.35 7.34 3.7 7 2 C4.69 2 2.38 2 0 2 C0 1.34 0 0.68 0 0 Z " fill="#2F3F50" transform="translate(129,151)"/>
<path d="M0 0 C1.258125 -0.020625 2.51625 -0.04125 3.8125 -0.0625 C4.52019531 -0.07410156 5.22789063 -0.08570313 5.95703125 -0.09765625 C8 0 8 0 11 1 C11 4.96 11 8.92 11 13 C10.67 13 10.34 13 10 13 C10 9.7 10 6.4 10 3 C9.34 3 8.68 3 8 3 C7.67 3.99 7.34 4.98 7 6 C6.34 5.01 5.68 4.02 5 3 C5.33 2.34 5.66 1.68 6 1 C4.02 1 2.04 1 0 1 C0 0.67 0 0.34 0 0 Z " fill="#324351" transform="translate(74,135)"/>
<path d="M0 0 C2.0625 0.4375 2.0625 0.4375 4 1 C4 2.65 4 4.3 4 6 C2.35 6.33 0.7 6.66 -1 7 C-1.04254356 5.00045254 -1.04080783 2.99958364 -1 1 C-0.67 0.67 -0.34 0.34 0 0 Z " fill="#C9D2DB" transform="translate(478,147)"/>
<path d="M0 0 C-0.99 0.66 -1.98 1.32 -3 2 C-3.22137393 4.62697064 -3.28162025 7.00893964 -3.1875 9.625 C-3.17396484 10.33140625 -3.16042969 11.0378125 -3.14648438 11.765625 C-3.1111104 13.51074128 -3.05730221 15.25546608 -3 17 C-3.66 16.67 -4.32 16.34 -5 16 C-5 12.04 -5 8.08 -5 4 C-5.66 4 -6.32 4 -7 4 C-7 2.68 -7 1.36 -7 0 C-3.86650268 -1.04449911 -3.01031744 -0.93423645 0 0 Z " fill="#4E6171" transform="translate(99,138)"/>
<path d="M0 0 C3.3 0.33 6.6 0.66 10 1 C10.33 1.99 10.66 2.98 11 4 C9.68 4 8.36 4 7 4 C7 3.34 7 2.68 7 2 C6.34 2 5.68 2 5 2 C5 2.66 5 3.32 5 4 C3.02 4 1.04 4 -1 4 C-0.67 2.68 -0.34 1.36 0 0 Z " fill="#FAFBFD" transform="translate(71,158)"/>
<path d="M0 0 C2.31 0 4.62 0 7 0 C7.33 1.65 7.66 3.3 8 5 C6.35 5.33 4.7 5.66 3 6 C3.99 4.35 4.98 2.7 6 1 C4.68 1 3.36 1 2 1 C2 2.65 2 4.3 2 6 C1.34 6 0.68 6 0 6 C0 4.02 0 2.04 0 0 Z " fill="#2E3F4E" transform="translate(475,138)"/>
<path d="M0 0 C3 -0.375 3 -0.375 6 0 C6.66 0.99 7.32 1.98 8 3 C5.03312999 4.64826111 2.34373475 5.44271087 -1 6 C-1.33 5.01 -1.66 4.02 -2 3 C-1.34 2.01 -0.68 1.02 0 0 Z " fill="#A9B2BA" transform="translate(201,132)"/>
<path d="M0 0 C3.3 0 6.6 0 10 0 C10 0.66 10 1.32 10 2 C11.98 2 13.96 2 16 2 C16 2.66 16 3.32 16 4 C10.72 3.34 5.44 2.68 0 2 C0 1.34 0 0.68 0 0 Z " fill="#E3FAF8" transform="translate(298,56)"/>
<path d="M0 0 C1.65 0.33 3.3 0.66 5 1 C4.67 2.65 4.34 4.3 4 6 C2.35 6 0.7 6 -1 6 C-0.67 4.02 -0.34 2.04 0 0 Z " fill="#475663" transform="translate(303,152)"/>
<path d="M0 0 C0.66 0 1.32 0 2 0 C1.34 2.31 0.68 4.62 0 7 C0.66 7 1.32 7 2 7 C2 8.65 2 10.3 2 12 C1.01 12 0.02 12 -1 12 C-2.11658501 7.31034294 -1.80619523 4.46236469 0 0 Z " fill="#708191" transform="translate(458,137)"/>
<path d="M0 0 C0.721875 0.598125 1.44375 1.19625 2.1875 1.8125 C2.1875 3.1325 2.1875 4.4525 2.1875 5.8125 C1.5275 5.8125 0.8675 5.8125 0.1875 5.8125 C-0.1425 6.4725 -0.4725 7.1325 -0.8125 7.8125 C-0.8125 6.8225 -0.8125 5.8325 -0.8125 4.8125 C-1.4725 4.8125 -2.1325 4.8125 -2.8125 4.8125 C-2.8125 3.4925 -2.8125 2.1725 -2.8125 0.8125 C-4.4625 0.8125 -6.1125 0.8125 -7.8125 0.8125 C-7.8125 0.4825 -7.8125 0.1525 -7.8125 -0.1875 C-4.56941762 -1.20675446 -3.18552767 -1.34500057 0 0 Z " fill="#D4D8DB" transform="translate(315.8125,134.1875)"/>
<path d="M0 0 C1.65 0 3.3 0 5 0 C5.33 2.64 5.66 5.28 6 8 C4.68 8.33 3.36 8.66 2 9 C2.875 4.25 2.875 4.25 4 2 C3.01 2 2.02 2 1 2 C0.67 2.66 0.34 3.32 0 4 C0 2.68 0 1.36 0 0 Z " fill="#2A3C4A" transform="translate(308,135)"/>
<path d="M0 0 C0.66 0.33 1.32 0.66 2 1 C1.67 1.66 1.34 2.32 1 3 C1.99 3.33 2.98 3.66 4 4 C4 5.65 4 7.3 4 9 C2.35 9.66 0.7 10.32 -1 11 C-1.66 10.34 -2.32 9.68 -3 9 C-1.35 9 0.3 9 2 9 C2 7.68 2 6.36 2 5 C1.34 5 0.68 5 0 5 C-0.33 4.01 -0.66 3.02 -1 2 C-0.67 1.34 -0.34 0.68 0 0 Z " fill="#324352" transform="translate(57,145)"/>
<path d="M0 0 C3.3 0.66 6.6 1.32 10 2 C10 2.66 10 3.32 10 4 C6.7 4 3.4 4 0 4 C-0.33 3.34 -0.66 2.68 -1 2 C-0.67 1.34 -0.34 0.68 0 0 Z " fill="#FDFEFE" transform="translate(220,158)"/>
<path d="M0 0 C0.66 0 1.32 0 2 0 C2.433125 0.9590625 2.433125 0.9590625 2.875 1.9375 C3.82823451 4.15206079 3.82823451 4.15206079 6 5 C6 5.66 6 6.32 6 7 C7.98 7 9.96 7 12 7 C12 7.33 12 7.66 12 8 C7.54231767 8.43702768 5.65349198 8.51445113 2.0625 5.6875 C0 3 0 3 0 0 Z " fill="#586471" transform="translate(324,151)"/>
<path d="M0 0 C0.33 0.66 0.66 1.32 1 2 C1.66 2.33 2.32 2.66 3 3 C2.67 3.66 2.34 4.32 2 5 C-0.64 5 -3.28 5 -6 5 C-6 4.34 -6 3.68 -6 3 C-5.195625 2.690625 -4.39125 2.38125 -3.5625 2.0625 C-1.10919595 1.23664655 -1.10919595 1.23664655 0 0 Z " fill="#FDFEFD" transform="translate(448,157)"/>
<path d="M0 0 C0.33 0.99 0.66 1.98 1 3 C1.66 3 2.32 3 3 3 C2.67 4.32 2.34 5.64 2 7 C0.68 7 -0.64 7 -2 7 C-2.125 4.625 -2.125 4.625 -2 2 C-1.34 1.34 -0.68 0.68 0 0 Z " fill="#3D4D5C" transform="translate(453,151)"/>
<path d="M0 0 C0.33 0 0.66 0 1 0 C1 2.64 1 5.28 1 8 C4.81413002 6.8321734 4.81413002 6.8321734 7.3125 3.875 C7.539375 3.25625 7.76625 2.6375 8 2 C8.04254356 3.99954746 8.04080783 6.00041636 8 8 C7 9 7 9 3.4375 9.0625 C2.303125 9.041875 1.16875 9.02125 0 9 C0 6.03 0 3.06 0 0 Z " fill="#233748" transform="translate(476,146)"/>
<path d="M0 0 C2.5 1.3125 2.5 1.3125 5 3 C5 3.99 5 4.98 5 6 C4.34 6 3.68 6 3 6 C2.67 7.32 2.34 8.64 2 10 C1.87625 9.195625 1.7525 8.39125 1.625 7.5625 C1.315625 6.2940625 1.315625 6.2940625 1 5 C0.34 4.67 -0.32 4.34 -1 4 C-0.67 2.68 -0.34 1.36 0 0 Z " fill="#506171" transform="translate(59,144)"/>
<path d="M0 0 C0.66 0 1.32 0 2 0 C2 1.32 2 2.64 2 4 C2.66 4 3.32 4 4 4 C4 5.32 4 6.64 4 8 C3.01 8 2.02 8 1 8 C-1.125 3.375 -1.125 3.375 0 0 Z " fill="#727F8F" transform="translate(308,141)"/>
<path d="M0 0 C1.32 0 2.64 0 4 0 C3.67 1.32 3.34 2.64 3 4 C3.99 4 4.98 4 6 4 C6 4.66 6 5.32 6 6 C3.69 6 1.38 6 -1 6 C-0.67 4.02 -0.34 2.04 0 0 Z " fill="#92A3B2" transform="translate(477,139)"/>
<path d="M0 0 C1.98 0 3.96 0 6 0 C6 1.32 6 2.64 6 4 C3.33333333 4 0.66666667 4 -2 4 C-1.34 2.68 -0.68 1.36 0 0 Z " fill="#5C6B7A" transform="translate(74,136)"/>
<path d="M0 0 C1.65 0 3.3 0 5 0 C6.35439668 2.70879335 6.06501451 5.00933268 6 8 C4 4.25 4 4.25 4 2 C3.34 2 2.68 2 2 2 C1.67 2.99 1.34 3.98 1 5 C0.67 5 0.34 5 0 5 C0 3.35 0 1.7 0 0 Z " fill="#2D3C4D" transform="translate(130,135)"/>
<path d="M0 0 C3.63 0.33 7.26 0.66 11 1 C10.67 1.66 10.34 2.32 10 3 C2.25 3.125 2.25 3.125 0 2 C0 1.34 0 0.68 0 0 Z " fill="#C0F6F5" transform="translate(268,104)"/>
<path d="M0 0 C2.62374802 5.24749603 3.09534716 8.08847633 3 14 C-0.16470185 9.25294723 -0.10927475 5.68228705 0 0 Z " fill="#42515C" transform="translate(462,139)"/>
<path d="M0 0 C0.99 0 1.98 0 3 0 C3.12375 0.61875 3.2475 1.2375 3.375 1.875 C3.87197356 4.19120832 3.87197356 4.19120832 6 6 C5.01 6 4.02 6 3 6 C2.67 7.32 2.34 8.64 2 10 C1.34 6.7 0.68 3.4 0 0 Z " fill="#EBF1F4" transform="translate(463,140)"/>
<path d="M0 0 C0.80824219 0.10183594 1.61648437 0.20367187 2.44921875 0.30859375 C3.06410156 0.39238281 3.67898437 0.47617188 4.3125 0.5625 C4.3125 0.8925 4.3125 1.2225 4.3125 1.5625 C-0.76836796 2.40931133 -5.53578377 2.65288099 -10.6875 2.5625 C-6.76357827 -0.05344782 -4.5634425 -0.59523163 0 0 Z " fill="#7AD5D0" transform="translate(235.6875,100.4375)"/>
<path d="M0 0 C-3.26737303 3.26737303 -6.83168198 3.95672896 -11.375 4.125 C-12.24125 4.08375 -13.1075 4.0425 -14 4 C-11.58592302 2.39061535 -9.65955563 1.34509262 -7 0.3125 C-5.9790625 -0.09548828 -5.9790625 -0.09548828 -4.9375 -0.51171875 C-3 -1 -3 -1 0 0 Z " fill="#69D3CB" transform="translate(280,84)"/>
<path d="M0 0 C0.66 0.99 1.32 1.98 2 3 C1.34 3 0.68 3 0 3 C0.33 4.65 0.66 6.3 1 8 C0.67 7.34 0.34 6.68 0 6 C-0.99 6 -1.98 6 -3 6 C-4.6875 4 -4.6875 4 -6 2 C-4.35 2 -2.7 2 -1 2 C-0.67 1.34 -0.34 0.68 0 0 Z " fill="#556574" transform="translate(206,153)"/>
<path d="M0 0 C0.66 0 1.32 0 2 0 C2 1.32 2 2.64 2 4 C2.66 4 3.32 4 4 4 C5.625 6.5 5.625 6.5 7 9 C5.68 9 4.36 9 3 9 C2.01 6.03 1.02 3.06 0 0 Z " fill="#304453" transform="translate(406,149)"/>
<path d="M0 0 C0.66 0 1.32 0 2 0 C2.33 2.64 2.66 5.28 3 8 C2.01 8 1.02 8 0 8 C0 5.36 0 2.72 0 0 Z " fill="#495767" transform="translate(137,146)"/>
<path d="M0 0 C1.32 0 2.64 0 4 0 C4 1.65 4 3.3 4 5 C2.35 5.33 0.7 5.66 -1 6 C-0.67 4.02 -0.34 2.04 0 0 Z " fill="#2C3D4C" transform="translate(104,149)"/>
<path d="M0 0 C3.37462715 0.54723683 5.08235 1.0549 8 3 C5.69 3.33 3.38 3.66 1 4 C0.67 2.68 0.34 1.36 0 0 Z " fill="#C7D0D7" transform="translate(54,139)"/>
<path d="M0 0 C3.73487777 0.4979837 5.81237635 0.87491756 9 3 C8.67 3.66 8.34 4.32 8 5 C5.03 4.505 5.03 4.505 2 4 C2 3.34 2 2.68 2 2 C1.34 1.34 0.68 0.68 0 0 Z " fill="#4D5C6C" transform="translate(380,136)"/>
<path d="M0 0 C3.125 -0.1875 3.125 -0.1875 6 0 C5.67 1.32 5.34 2.64 5 4 C2.69 3.67 0.38 3.34 -2 3 C-1.34 2.01 -0.68 1.02 0 0 Z " fill="#616E7F" transform="translate(53,134)"/>
<path d="M0 0 C6.75 -0.125 6.75 -0.125 9 1 C9 2.32 9 3.64 9 5 C8.01 5 7.02 5 6 5 C6 3.68 6 2.36 6 1 C4.02 1 2.04 1 0 1 C0 0.67 0 0.34 0 0 Z " fill="#DCDFE4" transform="translate(153,153)"/>
<path d="M0 0 C0 0.33 0 0.66 0 1 C-0.7425 1.103125 -1.485 1.20625 -2.25 1.3125 C-5.17014018 2.04253504 -6.73187554 3.06789398 -9 5 C-9.66 4.34 -10.32 3.68 -11 3 C-8.21756596 -1.17365106 -4.53441502 -0.22300402 0 0 Z " fill="#647383" transform="translate(336,134)"/>
<path d="M0 0 C-0.33 0.99 -0.66 1.98 -1 3 C-1.99 2.67 -2.98 2.34 -4 2 C-6.33006911 1.64456573 -8.66327016 1.3086247 -11 1 C-11 0.67 -11 0.34 -11 0 C-6.98195309 -0.84098656 -3.98196457 -1.05404945 0 0 Z " fill="#475563" transform="translate(485,136)"/>
<path d="M0 0 C2.31 0 4.62 0 7 0 C0.8 4.13333333 0.8 4.13333333 -2.25 3.625 C-2.8275 3.41875 -3.405 3.2125 -4 3 C-2.68 2.67 -1.36 2.34 0 2 C0 1.34 0 0.68 0 0 Z " fill="#B7EFEE" transform="translate(262,86)"/>
<path d="M0 0 C0.66 0 1.32 0 2 0 C1.67 1.98 1.34 3.96 1 6 C-0.32 5.67 -1.64 5.34 -3 5 C-2.67 4.01 -2.34 3.02 -2 2 C-1.34 2 -0.68 2 0 2 C0 1.34 0 0.68 0 0 Z " fill="#69DAD2" transform="translate(312,60)"/>
<path d="M0 0 C1.32 0.99 2.64 1.98 4 3 C3.67 3.99 3.34 4.98 3 6 C2.34 6 1.68 6 1 6 C0.67 5.34 0.34 4.68 0 4 C-0.99 3.34 -1.98 2.68 -3 2 C-2.01 2 -1.02 2 0 2 C0 1.34 0 0.68 0 0 Z " fill="#435364" transform="translate(336,135)"/>
<path d="M0 0 C1.65 0 3.3 0 5 0 C4.25 1.9375 4.25 1.9375 3 4 C0.875 4.75 0.875 4.75 -1 5 C-0.67 3.35 -0.34 1.7 0 0 Z " fill="#586977" transform="translate(307,137)"/>
<path d="M0 0 C1.85772162 0.08984301 3.71247985 0.24611861 5.5625 0.4375 C7.08037109 0.59025391 7.08037109 0.59025391 8.62890625 0.74609375 C9.80259766 0.87177734 9.80259766 0.87177734 11 1 C11 1.33 11 1.66 11 2 C7.37 2.66 3.74 3.32 0 4 C-0.33 3.01 -0.66 2.02 -1 1 C-0.67 0.67 -0.34 0.34 0 0 Z " fill="#B7BFC8" transform="translate(93,133)"/>
<path d="M0 0 C0.66 0.33 1.32 0.66 2 1 C1.67 1.99 1.34 2.98 1 4 C-0.98 4 -2.96 4 -5 4 C-5 3.34 -5 2.68 -5 2 C-2.625 0.9375 -2.625 0.9375 0 0 Z " fill="#51D1C9" transform="translate(241,96)"/>
<path d="M0 0 C2.64 0 5.28 0 8 0 C8 0.66 8 1.32 8 2 C5.36 2 2.72 2 0 2 C0 1.34 0 0.68 0 0 Z " fill="#FEFFFF" transform="translate(96,128)"/>
<path d="M0 0 C2.64 0 5.28 0 8 0 C8 0.66 8 1.32 8 2 C5.36 2 2.72 2 0 2 C0 1.34 0 0.68 0 0 Z " fill="#FEFFFF" transform="translate(456,126)"/>
<path d="M0 0 C2.64 0 5.28 0 8 0 C8 0.66 8 1.32 8 2 C5.36 2 2.72 2 0 2 C0 1.34 0 0.68 0 0 Z " fill="#FEFFFF" transform="translate(216,126)"/>
<path d="M0 0 C2.64 0 5.28 0 8 0 C8 0.66 8 1.32 8 2 C5.36 2 2.72 2 0 2 C0 1.34 0 0.68 0 0 Z " fill="#FEFFFF" transform="translate(144,126)"/>
<path d="M0 0 C2.64 0 5.28 0 8 0 C8 0.66 8 1.32 8 2 C5.36 2 2.72 2 0 2 C0 1.34 0 0.68 0 0 Z " fill="#FEFFFF" transform="translate(128,126)"/>
<path d="M0 0 C1.32 0 2.64 0 4 0 C4 0.66 4 1.32 4 2 C2.68 2 1.36 2 0 2 C0 1.34 0 0.68 0 0 Z " fill="#FFFEFF" transform="translate(388,126)"/>
<path d="M0 0 C1.32 0 2.64 0 4 0 C4 0.66 4 1.32 4 2 C2.68 2 1.36 2 0 2 C0 1.34 0 0.68 0 0 Z " fill="#FFFEFF" transform="translate(60,126)"/>
<path d="M0 0 C1.32 0 2.64 0 4 0 C4 0.66 4 1.32 4 2 C2.68 2 1.36 2 0 2 C0 1.34 0 0.68 0 0 Z " fill="#FEFEFF" transform="translate(308,112)"/>
<path d="M0 0 C0.66 0 1.32 0 2 0 C2 0.66 2 1.32 2 2 C1.34 2 0.68 2 0 2 C0 1.34 0 0.68 0 0 Z " fill="#FFFEFF" transform="translate(320,160)"/>
<path d="M0 0 C0.66 0 1.32 0 2 0 C2 0.66 2 1.32 2 2 C1.34 2 0.68 2 0 2 C0 1.34 0 0.68 0 0 Z " fill="#FFFEFF" transform="translate(252,144)"/>
<path d="M0 0 C0.66 0 1.32 0 2 0 C2 0.66 2 1.32 2 2 C1.34 2 0.68 2 0 2 C0 1.34 0 0.68 0 0 Z " fill="#FFFFFD" transform="translate(64,128)"/>
<path d="M0 0 C0.66 0 1.32 0 2 0 C2 0.66 2 1.32 2 2 C1.34 2 0.68 2 0 2 C0 1.34 0 0.68 0 0 Z " fill="#FEFFFF" transform="translate(252,126)"/>
<path d="M0 0 C2 1 2 1 2 1 Z " fill="#FCFCFC" transform="translate(198,132)"/>
<path d="" fill="#FCFCFE" transform="translate(0,0)"/>
<path d="" fill="#FDFDFD" transform="translate(0,0)"/>
<path d="" fill="#FEFEFE" transform="translate(0,0)"/>
<path d="" fill="#FDFDFD" transform="translate(0,0)"/>
<path d="" fill="#FEFEFE" transform="translate(0,0)"/>
<path d="" fill="#FDFDFD" transform="translate(0,0)"/>
<path d="" fill="#FDFDFD" transform="translate(0,0)"/>
</svg>
